<?xml version="1.0" encoding="UTF-8"?>
<svg id="Layer_1" data-name="Layer 1" xmlns="http://www.w3.org/2000/svg" viewBox="0 0 1920 2161.76">
  <defs>
    <style>
      .cls-1 {
        fill: #683447;
      }

      .cls-2 {
        fill: #653535;
      }

      .cls-3 {
        fill: #633345;
      }

      .cls-4 {
        fill: #5f5f5b;
      }

      .cls-5 {
        fill: #372d3b;
      }

      .cls-6 {
        fill: #7b364b;
      }

      .cls-7 {
        fill: #76354a;
      }

      .cls-8 {
        fill: #7e364c;
      }

      .cls-9 {
        fill: #5b3b48;
      }

      .cls-10 {
        fill: #603445;
      }

      .cls-11 {
        fill: #563343;
      }

      .cls-12 {
        fill: #4a3944;
      }

      .cls-13 {
        fill: #673346;
      }

      .cls-14 {
        fill: #83384d;
      }

      .cls-15 {
        fill: #5c3244;
      }

      .cls-16 {
        fill: #83374d;
      }

      .cls-17 {
        fill: #ff92c4;
      }

      .cls-18 {
        fill: #f69197;
      }

      .cls-19 {
        fill: #80374c;
      }

      .cls-20 {
        fill: #7c364b;
      }

      .cls-21 {
        fill: #563b47;
      }

      .cls-22 {
        fill: #703448;
      }

      .cls-23 {
        fill: #b4897f;
      }

      .cls-24 {
        fill: #913950;
      }

      .cls-25 {
        fill: #5e3b48;
      }

      .cls-26 {
        fill: #8b3d51;
      }

      .cls-27 {
        fill: #583243;
      }

      .cls-28 {
        fill: #5c414b;
      }

      .cls-29 {
        fill: #d64361;
      }

      .cls-30 {
        fill: #603647;
      }

      .cls-31 {
        fill: #573444;
      }

      .cls-32 {
        fill: #613848;
      }

      .cls-33 {
        fill: #8d4355;
      }

      .cls-34 {
        fill: #a0b18f;
      }

      .cls-35 {
        fill: #ac8c7f;
      }
    </style>
  </defs>
  <path class="cls-2" d="M1290.94,878.44l-2.4-2.13c-1.7-5.17-4.08-5.63-7.15-1.39-1.61-3.07-3.81-6.08-7.84-4-3.75.34-7.46,1-11.13,1.99-.27-2.56-2.04-3.73-5.33-3.52.03-.87-.05-1.64-.47-2.03-.46-.43-9.82,2.04-10.74,3.25-4.47-4.8-7.59-5.26-9.35-1.39l-4.3.32c-2.76,6.81-5.9,3.41-8.88-1.45-3.18.02-6.72-1-10.61-3.06,5.34-6.05-7.88-11.08-6.47.52-1.06-2.57-2.68-2.97-3.18.05-3.49-1.6-7.01-2.59-10.57-2.95-1.29-1.43-2.22-.95-2.68.96-2.58-5.23-5.47-2.33-4.46,2.89-1.02-3.55-4.56-8.7-7.27-4.94-1.86-1.32-3.12-.59-3.59,1.58,1.06,4.67-1.02,5.57-5.65,3.26-3.21.41-6.62.81-10.25,1.21-1.11-.19-2.17.47-3.17,1.98-3.47-2.3-6.16-2.24-7.29,2.31-5.69.82-9.42,2.47-12.65,7.06-4.55-.42-7.36,1.21-8.42,4.88-2.23-2.74-6.46-.1-7.42,3.13-1.19-.95-2.01-1.14-2.98.42-1.42-3.83-4.08-2.47-6.12.52-2.85-.88-5.66-.05-8.43,2.47-4.33.74-9.66,2.55-14.03,6.77"/>
  <path class="cls-2" d="M1194.21,863.65c-3.37-.44-6.25.11-8.64,1.67-3.44-3.68-6.81-2.85-10.1,2.48"/>
  <path class="cls-5" d="M872.36.88c-5.85,5.68-15.38-.63-22.89,1.28-.35,1.8,2.44,1.69,3.77,1.92,3.75.66,7.8-.13,10.87,1.88-.6,5.34-7.75.4-10.82,1.28-.81,4.76,9.35,4.29,11.82,3.54,3.36-1.02,7.16-8.67,13.61-8.63V.88s-6.36,0-6.36,0Z"/>
  <path class="cls-5" d="M970.32.88c-2.53,3.9-.72,1.98,1.93,2.5,4.71.92,11.96,3.6,14.61-2.5h-16.54Z"/>
  <path class="cls-7" d="M1129.33.88c3.82,2.12,12.45,2.16,16.54,0h-16.54Z"/>
  <path class="cls-27" d="M1087.35,167.34c-2.68-.93-21.85-2.06-22.89-1.26-1.34,5.5,14.06.67,14,3.18-1.02,2.72-4.75,6.65-7,8.26s-6.17,1.41-7,3.79c14.03,2.04,16.39-21.68,29.23-4.43-6.35,4.86-14.54,5.33-21.86,7.38-1.31.37-3.85.31-3.55,2.14,18.25-.83,33.76-9.87,52.68-7.51,2.68.34,12.92,3.49,6.48,4.96-3.25.74-11.01,1.3-13.33,3.23-1.82,1.52-4.11,9.51-7.24,10.58s-6.34-.65-9.33-1.08c-2.97-.91-4.24-.49-3.82,1.27l10.17,3.17c-5.84,6.71-23.17,2.93-22.26,14.61,5.57-8.45,15.08-6.69,22.71-10.35,6.6-3.16,8.67-13,16.15-15.64s25.08-4,34.29-5.77h-6.35c-.48-2,2.33-1,3.81-2.54-2.8.53-12.1,1.59-14.54,1.24-4.09-.59-9.06-5.48-14.17-6.24-5.57-.83-12.52.24-18.36-.08-1.2-2.29-3.83-3.7-7.9-4.23-2.77-3.71-6.07-5.26-9.91-4.66Z"/>
  <path class="cls-11" d="M1124.25,144.46c-1.03-.67-.82-2.95-2.53-2.54l-.63,3.79c-14.65-2.57-31.98.67-47.1,2.57-1.73.22-4.05.9-1.89,2.52,20.95-1.45,36.73-6.48,57.51.37,7.03,2.32,12.42,7.14,19.78,8.2,8.63,1.24,18.26-.22,27.02.33.15-.7.86-1.82,1.27-2.54-1.53-2.85-5.88-2.63-7.63,0-6.45-.25-14.16-.91-20.35-2.54l-.9-2.91c-8.29-3.49-16.47-5.91-24.55-7.25Z"/>
  <path class="cls-5" d="M914.34,35.19c-2.89.29-8.61,1.83-10.63,1.15-2.89-.98-2.53-6.7-3.53-7.34-1.06-.68-7.15.08-9.36-1.45-1.72,1.34,1.74,2.32,2.61,2.51,4.88,1.03,5.31-2.19,6.91,5.12l-17.8-.6c-.76,4.82,18.34,5.83,21.61,5.71l-6.35,6.33c7.1-2.87,8.56-6.63,16.53-2.51-1.84,3.01-6.84,2.37-9.62,5.02-1.4,1.34-1.52,2.07-1.82,3.86,6.12-3.77,15.88-4.57,13.99-13.98-6.42.14-4.94-1.97,0-3.81-.47-.47-1.32-.47-2.54,0Z"/>
  <path class="cls-1" d="M925.79,180.04c-3.26,5.68-2.59,11.5-2.56,17.78l-1.87-12.72-5.75,3.83,2.48,2.37c.41,6.76,2.32,12.83,5.72,18.21-2.14.32-3.29,1.1-3.11,3.57-4.35,1.64-9.02,2.97-10.17,8.89,3.71.32,5.04-4.38,7.69-5.65,3.51-1.67,8.98-.96,12.64-3.24,2.02,8.89-5.62,12.87-7.61,20.32,1.5,1.57,8.06-8.5,8.7-9.72,7.45-14.17-5.29-14.78-7.16-22.95-1.59-6.97,1.26-13.81,1-20.7Z"/>
  <path class="cls-13" d="M893.99,195.29c-4.48.45-14.33-1.86-17.73-4.52-4.08-3.19-4.96-13.4-6.73-15.51-1.35-1.62-17.28-6.4-12.43-1.58.9.89,7.97,1.28,10.25,4.39,1.54,2.1,2.56,8.05,3.74,10.88h-19.08s20.09,3.44,20.09,3.44c3.93,2.93,10.5,2.4,12.98,6.73,3.21-3.87,4.14-1.8,8.9-3.81Z"/>
  <path class="cls-16" d="M1853.18,571.4c.97-.1,2.12,1.21,2.54,1.27,2.07.31,3.83-.46,6.31.66,4.58,2.07,5.22,10.22,11.5,8.22-1.8-2.66-5.69-3.51-5.08-7.6,6.38.67,11.41,1.57,17.81-.01,1.23-5.28-5-.04-6.36-1.27-2.15-1.94,4.88-3.26,2.52-6.35-.44-.58-4.5,4.67-7.05,5.1-7.1,1.2-10.14-6.5-22.2-.02Z"/>
  <path class="cls-6" d="M1840.46,520.58l1.25,2.46c-1.72-.25-2.59.75-3.79,1.35l21.07-7.55c1.19-.3,4.29-2.47,4.35-3.26.25-3.14-3.42-.57-4.16-.39-3.24.8-6.35,2.4-9.8,2.28,1.16-2.66,1.33-6.3,5.09-6.37-1.31-4.09-3.8-1.41-5.62,1.41-2.72,4.21-1.58,8.03-8.38,10.06Z"/>
  <path class="cls-5" d="M750.24,127.94c-7.06-10.9-27.68-4.35-38.16-3.81-.16,2.79-.49,2.35,1.93,2.58,10.95,1.07,26.51-9.32,34.96,5.04.74-.16,1.72.11,2.54-.01-2.29-1.88-1.15-3.61-1.27-3.8Z"/>
  <path class="cls-4" d="M1184.04,131.76c-10.04,3.04-12.39-8.98-20.67-7.37l-13.68,6.09c6.17,2.11,15.28-8.67,18.46-1.25-1.15,1.65-8.56,2.55-5.73,6.35.3.4,4.32-3.75,6.98-3.73,1.91.02,4.48,1.99,7,2.46,1.81-1.04,5.59-2.09,7.63-2.54Z"/>
  <path class="cls-14" d="M1869.72,598.09c2.15,2.38.1,4.77-2.54,2.54,1.46,1.4,4.68,5.24,7.07,7.61,1.32,1.3,1.7,3.68,1.86,3.82.78.69,3.4.25,2.51-1.88-.94-2.24-6.68-5.3-7.62-8.26,7.51,3.53,14.79,2.5,22.89,2.52,4.33-3.29-9.51-2.47-10.67-2.67-4.62-.81-8.97-2.58-13.49-3.67Z"/>
  <path class="cls-8" d="M700.62,103.8c-9.2-.08-18.14-8.05-25.44,5.07,4.49-1.18,7.19-5.61,12.39-6.08,3.62-.33,6.8,2.53,10.5,2.3-1.28,3.19-9.92,4.63-11.44,6.36-.91,1.05-.45,2.84,1.89,2.53,3.11-.42,9.98-5.12,13.37-6.36-3.53.59-3.14-1.18-1.27-3.81Z"/>
  <path class="cls-5" d="M881.27,99.99c-8.67-4.32-16.56-11.78-26.71-12.7-.64,3.38.72,2.21,2.54,3.1,7.87,3.84,15.41,8.93,22.89,12.14l1.27-2.54Z"/>
  <path class="cls-22" d="M661.19,89.83c3.27-.05,4.37-1.03,3.75,3.1-1.51,10.17-16.23,5.01-21.56,12.13,4.88-1.37,15.65-1.91,19.47-4.04,3.24-1.81,3.29-4.96,4.7-7.38l-1.28-5.09c-2.11-1.04-4.4,1.22-5.08,1.28Z"/>
  <path class="cls-16" d="M885.08,199.1c-4.03,1.17-7.85-.45-11.97.09-1.39.18-10.53,3.33-10.93,3.74-4.86,5.07,7.74.12,8.33.05,3.96-.5,8.08.3,12.02-.07.9-1.21,1.58-2.65,2.54-3.81Z"/>
  <path class="cls-20" d="M1217.11,163.52c-4.57-.41-22.02,14.54-19.08,17.78l15.06-13.54,6.56-1.7c-.48-.75-2.03-1.35-2.54-2.54Z"/>
  <path class="cls-15" d="M685.36,9.77c-6.7-1.16-13.26-3.88-20.36-2.54v3.8c5.7-.61,11,.48,16.54,1.28l-1.27-2.53h5.09Z"/>
  <path class="cls-5" d="M907.98,106.34c.86.86,1.66,1.69,2.54,2.54,3.71-3.43,6.63,2.04,9.37,1.21.88-.26,6.75-7.97,5.89-8.83-3.55-.66-4.47,4.31-7.13,4.78-2.48.44-7.35-2.74-10.67.29Z"/>
  <path class="cls-17" d="M712.07,21.21c-3.52,1.04-1.9,4.94-2.92,7.28-.18.41-5.73,4.63-5.99,6.69,3.28.29,6.97-.38,10.18,0-4.38-4.38-1.93-8.8-1.27-13.98Z"/>
  <path class="cls-5" d="M904.16,112.7c.7,1.71-1.71,7.2-1.27,7.62.2.18,2.25-.41,3.42.34,2.02,1.3.54,4.57,6.76,2.21-3.48-3.13-5.9-6.66-8.9-10.17Z"/>
  <path class="cls-2" d="M1480.45,840.78c.13.36-.12.86,0,1.27"/>
  <path class="cls-17" d="M885.08,91.1c1.49,3.02.32,5.76,0,8.89h5.08c.41-.24,1.78.21,2.54,0,1.64-2.13-6.1-7.32-7.63-8.89Z"/>
  <path class="cls-5" d="M845.65,35.19c.38.02,2.01,2,4.43,1.27,5.24-1.58-2.17-4.2-3.16-5.08l-1.27,3.81Z"/>
  <path class="cls-9" d="M928.34,36.46c3.97-.39,11.35-.45,15.27,0-3.39-2.12-11.61-2.16-15.27,0Z"/>
  <path class="cls-30" d="M1264.18,39c6.21.88,5.61,1.82,12.72,0h-12.72Z"/>
  <path class="cls-2" d="M979.89,909.26c-1.06-3.51-9.24-6.03-11.54-2.44-5.65-1.95-6.56-.16-7.46,5.05-2.46-1.78-4.43-2.66-5.89-2.65,1.14,4.31.25,5.77-2.69,4.37,1.05-2.96-3.96-3.38-6.36-2.54-5.06,3-8.88,6.81-11.45,11.44-3.54-.46-9.27-.89-10.73,2.2-11.16,4.26-2.32,15.41-5.22,5.12-.49-1.75-13.64-6.26-15.85-2.23-1.74-3.44-5.2-.93-3.82,2.54l-3.29-.38c-1.89,4.29-4.65,5.2-8.28,2.76-.32,5.46-6.77,5.31-12.6,3.98,2.41-4.71-1.43-9.55-5.5-5.16-.59,5.46-3.15,3.92-5.66.59l-4.11-.51c-2.53.02-4,2.71-3.17,5.22-1.74,3.82-2.8,4.35-6.98,5.31-2.32-3.52-5.54-1.02-6.39,2.17-3.67.17-7.08-.41-10.22-1.74-1.01,3.98-4.11,4.42-7.12,1.78-1.13,4.44-3.25,5.18-6.35,2.24-.18,5.35-2.86,8.16-8.04,8.42.29,1.98-1.33,3.3-4.87,3.96.57,3.15-1.22,5.47-5.38,6.95-1.11.36-1.09.79,0,1.27-3.11,2.16-4.04,5.76-2.76,10.81l-2.71-1.39c-3.68.41-6.94.23-9.79-.53.13-.99-.29-1.41-1.27-1.27-3.09,1.86-6.91,2.29-11.45,1.27l-2.69-.91c-5.29,2.67-12.94,4.92-18.25,5.43-11.95-2.18-21.05-8.4-29.59-16.53-21.91-8.08-48.66-10.37-70.19.85-20.77,2.24-39.63,8.19-56.56,17.87-6.69,7.48-587.62,14.36-595.05,19.34v79.41c441.35,1.12,1476.83-.15,1918.53-1.27v-337.99c-.36-1.11-.79-1.09-1.27,0-.68.09-1.29.25-1.63.64-2.27,2.56-5.72,8.04-5.73,11.01-2.78,1.17-4.99.67-6.63-1.49-2.4-2.75-4.38-.52-2.54,2.54l-2.43.87c-3.39-4.87-6.82-6.85-10.29-5.95-5.57-4.13-5.79,4.21-.71,5.83l.61,2.82c-2.78-2.51-6.14-3.7-10.08-3.57,2.63-2.76-.74-6.43-3.82-3.81-5.9-.57-3.37,5.24,0,9.22-2.25,2.76-2.76,6.79-1.52,12.1-3.49,1.66-5.53,4.72-6.11,9.17-3.18-1.58-.83,3.72-1.27.48-.35-2.62-1.68-5.54-3.82-6.83-1.62-1.65-1.88-.93-1.27,1.27-3.22.32-4.36,5.44-1.27,4.57l-1.27.51-3.98-1.12c.36,5.4-2.38,6.7-7.54,7.66-1.63,6.49-13.41,4.97-17.34,2.62-1.05,3.19-3.8,6.35-6.21,2.9-3.34.19-6.57.81-9.68,1.88-1.63-1.36-3.68-1.35-6.14.05,1.68-1.37,1.09-3.19-1.27-2.54-3.42-3.83-8.58-1.83-8.76,3.07l-6.51.74-2.47-1.79c-6.54,4.47-13.19,8.32-19.95,11.55,1.36,3.19-8.64,6.37-9.05,5.94,1.27-8.05-5.36-7.14-9.07-1.54l-7.11-2.43c-12.38,2.94-30.07-25.77-33.22-35.52.24-11.95-2.91-22.21-9.44-30.8-6.28-25.05-8.28-58.86.69-83.32l-1.97-3.13c2.83-4.84,4.24-10.42,4.24-16.74,8.79-11.76,17.98-23.45,27.7-34.5l14.25-5.18c19.14-17.99,42.56-21.88,67.6-24.99,12.47,2.83,24.49,7.16,36.06,12.99l2.81-1.46c-1.16,3.83,2.2,4.26,5.09,2.54-.66,1.46-.18,3.27,1.45,5.42l-.17,6.02c-2.04-1.25-3.79.44-3.76,2.58.15,9.86,8.43.32,10.28-4.6,2.1,2.5,4.17,3.17,6.2,2.02,4.85,4.95,8.63.27,2.54-2.54,1.04-1.65,1.36-3.24-.22-4.36l-14.48-10.59c-4.2-2.4-3.79-4.9,1.24-7.5l-.54-2.96c1.87-2.12-.32-1.77-2.54-1.27l-3.19-.96c-3.44,3.62-7.47,4.78-12.08,3.5l-1-2.9-11.41-2.29c-8.12-1.34-.15-8.15,4.43-9.72l.35-2.88,2.67,1.73c9.46-2.08,18.26-5.64,26.4-10.69,4.94,4,5.62.03,5.67-4.77,5.79-2.7,14.88-13.22,11-19.57-4.24-6.96-7.1.48-6.45,6.21-.76,1.8-16.32,11.76-19.14,12.8,4.34-7.78-1.6-15.27-6.72-5.97-.3,8.14-3.9,11.83-10.81,11.07l-1.36,2.85-2.62-1.76c-6.2,3.74-12.25,7.65-18.17,11.75-11.6.56-23.05,2.13-34.37,4.7,7.49-7.12,15.98-13.39,25.19-18.11l.7-2.93c14-1.83,24.52-5.75,35.26-15.98l.36-3.08c3.5-.92,8.5-4.19,2.54-3.81-1.8-4.81-7.29-1.93-10.64.13,2.75-3.57,6.26-21.12-1.72-17.9-1.81.73-6.18,21.43-6.01,24.56-7.79,5.38-24.49,12.01-12.07-3.01-4.27-12.86-15.51,5.76-12.82,12.75l-3.66.07c-7.52,5.83-15.31,11.31-23.38,16.46-14.32,17.07-38.15,26.17-59.15,33.1,7.13-26.66,13.91-50.95,27.46-75.75l17.58-50.04c13.15-15.39,21.7-31.02,29.7-50.21l5.11-7.02c13.64-11.88,27.7-23.28,42.17-34.19,16.87-28.99,50.59-33.99,80.56-23.2l1.92-2.37v-13.98s-.78-2.67-.78-2.67l-23.6-3.42c10.14-10.48,18.27-22.01,24.38-34.57v-3.81c.12-2.03-1.77-3.36-3.82-2.54-2.29,1.42-3.98,4.38-5.09,8.89l-3.23.58c-2.47,4.47-5.39,8.71-9.32,12.02-2.73-3.21-5.33-4.03-7.8-2.44-3.34-1.74-2.91-.04,1.27,5.08l-2.1,1.87c2.93,5.15-10.9,14.08-14.89,15.74-18.84,2.99-33.47,11.79-45.33,26.89-3.29,4.55-33.16,17.38-34.82,16.37-3.31-2.01-1.95-30.15,1.81-34l11.73-29.72-1.64-3.5,3.16-2.21c1.38-20.37,5.39-39.66,12.01-57.88,12.02-14.33,26.34-26.7,42.96-37.12l1.66-4.44c1.61,1.36,2.88.51,3.82-2.54,6.88-.13,14.02-6.52,16.54-12.71l2.54,1.29c6.65-7.46,13.85-10.41,21.59-8.87l5.13-1.32c1.42,3.28,2.42,3.27,3.82,0v-13.98s-1.06-2.71-1.06-2.71l-18.04-2.51c3.09-6.29,10.83-7.97,17.3-7.62l1.8-2.4v-19.06s-2.46-1.99-2.46-1.99c-9.8,5.47-19.82,10.39-30.03,14.76-7.97,10.35-15.42,21.1-22.35,32.23l.14,3.28-2.79-1.03c-10.76,7.6-22.1,14.78-34.09,20.21l1.37-9.63c-2.86-9.08.19-16.8,9.13-23.17l-.34-2.9c5.02-6.7-.56-6.61-5.09-1.27-3.25-2.02-3.85-1.01-3.82,2.54-4.34-1.2-2.59-7.37-1.13-11.03l9.37-15.09c-1.33-12.44-10.38.29-13.16,6.65-3.36-6.03-7.9-11.39-13.46-15.51-10.36-4.88-15.8-10.53-20.76-20.74-10.96-6.35-5.46,14.74,1.14,17.77,5.94,2.64,10.02,6.3,12.23,10.97,18,13.41-2.34,16.8-9.58,2.56l-7.52-10.6-2.93.7c-2.04-.86-3.38-1.2-2.54,1.27.06,4.52,6.17,14.01,9.54,17.77l3.18.02c1.15,4.34.64,5.45-1.54,3.32l-2.28,1.76c-.72-6.34-11.17-7.57-16.97-7.08-13.98,1.16-22.38,19.88-2.05,9.04,3.46-1.2,7.02-.81,10.17,1.03,11.61,10.21,19.57,6.55,31.7-.64-.93,5.28-.06,9.16,2.59,11.63l-2.4,2.18c1.76,8.77,1.46,17.19-.9,25.26,1.6,1.28,1.85,3.15.75,5.6l-3.2,1.1c-6.58,9.31-13.34,18.5-20.28,27.57l-.69,5.63c-3.72-.98-5.74,6.12-4.04,8.31l-1.05,4.4-2.6,1.25c-7.95,16.79-13.25,35.37-15.99,54.24l-7.72-15.65-2.95-.45c-4.49-19.73-10.42-39.08-17.79-58.05-6.95-25.1-1.72-51.4,4.32-76.18-.33-4.12-.08-8.51.75-13.17l3.05-1.61c2.65-22.38,17.37-32.19,34.99-43.07,10.99-18.61,24.36-33.14,44.56-41.77,8.43,2.29,16.94,3.57,25.54,3.86-.92,1.71-.08,2.13,2.54,1.27-.06,3.88,4.56,6.12,7.63,3.81-1.04,2.43.3,3.96,4.01,4.59,7.12,7.08,14.58,14.18,22.41,21.29,8.23,8.36-7.58,21.56-15.91,17.29l-2.87,1.3c-.2-4.43-7.63-9.62-11.48-9.43l-3.05-3.26c-12.27-3.54-20.19-7.14-27.32-18.43-12.74-7.76-9.79,3.66-1.38,8.64l3.96,5.83c-6.48.34-16.89,1.48-21.16,6.92-10,12.72,8.09,5.02,13.77,1.36,10.69-4.91,40.99,8.37,46.09,16.44,1.16,1.84-11.99,7.22-14.51,5.23-10.73-1.84-20.04-2.78-30.61.9-8.35,2.9-18.23,7.56-2.93,9.98,13.25-5.4,25.67-4.21,39.65-2.66,7.9.06,21.62-1.37,22.97-10.07.51,1.34,3.13.44,4.28-.28,10.81-6.7,15.51-16.67,19.75-28.09,7.13-.66,11.84-2.74,14.14-9.76v-5.08s-2.37-1.85-2.37-1.85c-11.99,6.69-17.24,4.36-27.79-3.1-13.67-12.64-27.46-21.68-44.87-28.05l15.21-8.82c4.48-3.51,11.19-9.7,10.2-15.37,1.2.35,1.62-.08,1.27-1.27,1.01-2.94,3.27-4.48,5.89-5.87l-.8-3.02c3.37-.71,3.3-1.67,0-2.54h-24.17s-1.46,2.91-1.46,2.91c6.23,9.16,4.23,11.35-4.67,15.69-17.12,6.3-33.72,13.6-49.78,21.9-1.38.14-15.28-8.51-12.46-12.48C1788.57,20.8,1795.64,4.81,1785.57,0h-3.82s-2.35,2.85-2.35,2.85c1.88,7.04-.1,13.69-5.94,19.94-4.21,8.34-1.18,17.15,2.5,24.99-2.32,4.31-2.94,7.87-1.85,10.67l-3.24.78c-2.66,5.07-6.49,9.35-11.49,12.84,2.42-6.03,4.21-18.18-3.07-19.98l1.47-3.11c-6.44-10.09-14.14-19.21-23.09-27.38l.73-2.75c-4.14-4.79-5.2-11.41-5.74-17.55L1727.05,0h-10.18c.24,2.93,1.7,6,4.37,9.22l5,15.19c1.52-.63,2.52-.17,3.35,1-2.54,4.73,6.52,13.91,11.28,13.82,1.37,4.69,4.38,9.31,7.81,11.59l-1.34,1.19c3.86,11.35-5,30.66-11.64,40.49-12.42,12.58-21.52,25.06-24.37,43.4-4.68-8.58-8.26-17.53-10.74-26.86l-2.8-1.04c1.35-6.5,1.64-13.32.86-20.48,2.72-2.99,11.16-12.71,6.77-15.73,4.23-1.22,3.9-17.09,0-19.06,4.02-4.97,5.13-18.3,1.27-23.51C1715.56,23.9,1708.17,2.63,1699.07,0h-6.36c-1.63,3.74,3.89,10.85,7.63,11.44-1.78,1.26-1.36,2.96,1.27,5.08-1.09.42-1.09.84,0,1.27l-2.07,3.48c.84,6.68.74,13.42.26,20.12-2.49-4.53-6.97-10.61-12.18-10.89,1.11-3.74-.08-8.46-3.57-14.15l-.2-10.81C1684.1,2.01,1682.82.16,1679.98,0h-5.09c-2.49,1.24-1.12,19.51-.39,20.26l2.93,1.34c-2.24,2.55-1.47,5.89,2.3,10.02,18.17,15.52,13.28,34.65,3.35,53.31-.22,10.2-6.01,6.18-11.88.99s-6.62-17.49-6.59-24.56l1.89-27.11c.51-5.88.08-14.2-4.33-16.47l1.25-1.26C1658.95,10.73,1653.87,5.22,1648.18,0h-6.36c-5,2.81,2.84,16.34,7.63,15.25-.42,3.01.3,6.4,2.17,10.17-1.38,4.98-.83,8.79,1.65,11.43-3.31-.87-3.54-.01-1.27,2.54-1.55,4-1.81,8.82-.79,14.46-1.31-1.52-2.47-1.71-4.3-.48l-.94-2.67c-6.03-4.55-12.98-8.54-20.85-11.98-11.84-6.94-15.54-24.34-16.5-37.13L1606.2,0h-2.54c-1.89.58-3.28.97-5.09,0h-3.82s-1.89,1.91-1.89,1.91l16.76,33.48c-10.94.98-19.27-8.39-19.48-19.41-.8-3.39-1.85-6.12-5.57-4.54-1.11.31-1.08.74,0,1.27-1.46,1.18-1.57,3.64-.31,7.38-3.63,8.52,6.41,21.16,15.38,23.95l21.77,5.09c13,5.16,10.44,6.28-2.24,7.99-9.37,1.83-9.41,12.55.35,6.74,6.8.11,11.57-.66,17-5.06l11.38,8.08,2.82-.8c-1.05,1.91-.98,4.38.22,7.39l-.32,12.25,2.65,1.97-.4,2.92c5.12,5.03,9.76,10.49,13.91,16.4l3.02-.26c-.6,1.23-.64,2.42.03,3.56,8.12,13.73,14.77,25.64,18.3,41.56l3.29,1.89c-.98,6.09.29,9.48,3.82,10.17-3.58,3.09.77,11.96,3.82,15.25-2.06,1.78-3.02,4.73-2.85,8.85-5.29,11.48-6.32,25.49-4.99,37.97.08.79,1.7,1.2,2.76,1.46-.85.63-2.12,1.66-1.85,2.31,1.83,4.43,6.51,11.23,10.4,13.64l.54,3.99c9.31,17.55,15.5,36.41,20.47,55.58l3.51,3.26-1.51,4.14c10.34,25.57,13.68,51.14,10.05,76.7-8.81,20.45-17.49,40.89-26.02,61.31.51,8.38-.92,13.42-4.32,21.01-2.84,6.33-27.89,53.46-31.18,53.8-7.8.8-41.91-27.39-47.47-32.42-45.17-40.9-88.75-82.18-107.73-141.18-1.2-2.65-3.86-8.09-6.8-7.77-2.99-7.01-2.37-16.3-.89-23.03-7.1-9.51-12.13-19.5-15.09-29.98l-3.09-1.63c2.79-3.77-2.17-13.84-6.36-15.25,4.06-16.24,8.72-32.32,13.98-48.24,19.96-1.57,33.23,7.17,46.57,20.62,6.91,4.98,14.75,10.52,23.67,8.2l20.28-4.45c4.47.38,8.64.29,12.53-.27-.78,3.33.11,3.59,2.54,1.27,2.01,1.75,2.74,1.02,1.27-1.27,7.24.01,14.63,2.14,22.17,6.39,13.13-3.32-4.99-12.67-10.85-14.46-4.32-1.32-12.65-3.67-15.14.45-.65-1.34-1.58-2.15-2.98-2.57-1.67-.51-12.62.87-12.28,3.84-.9-2.36-2.11-2.5-4.27-2.12,1.68-3.83,1.4-6.52-.82-8.04,1.09-2.48-.39-2.39-2.54-1.27-3.96-1.84-10.18,7.83-10.18,11.44-4.11-.54-8.07-1.5-11.86-2.85-16.14-16.64-32.8-22.46-55.4-25.28l1.79-20.91,31.27-10.68c2.55-1.01,4.54-1.9,3.66-5.08,1.27.9,2.64.46,4.13-1.34l11.37,3.14,2.31-1.81c2.15.8,2.44.79,1.27-1.27-.11-5.6-4.77-5.45-8.9-5.08-1.86-1.42-1.86-3.53,0-6.35,3.46,2.87,12.65.63,13.99-3.81,1.38-2.25.85-3.73-1.81-2.82.01-2.66-.66-4.26-2.01-4.8-1.77.58-2.67,2.23-2.71,4.93-4.02-.61-6.51.29-7.47,2.7-3.44-4.76-9.71.54-11.12,5.36-.95,7.6-31.13,15.24-31.86,13.18s6.66-33.63,13.9-33.02l-.17-2.04,2.97.67c10.85-10.46,21.29-20.54,24.21-35.67l10.52-6.6c3.99-2.69,9.76-10.36,4.27-13.04.19-1.41.82-2.39,2.41-2.75-1.41-3.57-2.64-7.32-3.68-11.23,1.1-2.38.78-5.13-.96-8.26l.96-9.53c6.37-1.75,5.21-22.31-3.45-15.23-2.87,2.34-6.15,36.77-4.62,38.33.45.46,1.06.77,1.71,1.04-2.4.84-2.73,3.35-1,7.53,3,4.84-9.72,5.58-10.66,4.9-1.83-1.32-.14-14.49.31-17.16-1.55-1.57-1.64-4.37-.25-8.4l-1.11-.85,2.56-1.95-1.89-20.38c1.24-5.02,1.44-9.43.61-13.24,2.55-3.61,1.72-8.54-2.54-10.17l1.24-1.35c-1.23-6.1-2.23-12.47-3.01-19.1L1536.23,0h-2.54c-4.22,2.63-2.63,5.87,1.27,7.62-1.88,1.17-2.61,2.59-2.16,4.59-2.08-2.59-4.33-3.69-6.74-3.32C1528.25,5.24,1521.81,1.03,1518.42,0h-3.82c-4.61,2.38,4.02,12.79,7.63,10.17.97,5.59,3.09,7.71,6.36,6.35l-.89,3c2.35,3.09,4.64,6.5,4.67,10.55-2.81,14.02-4.47,28.17-4.97,42.43l2.46,2.47c-4.14,8.03-4.69,19.53-1.27,27.95l-2.58,1.25c1.34,7.64-1.41,14.26-8.24,19.87l.65,3.03c-4.61-.69-8.92-2.29-12.17-5.75l-3.1.67c.69-3.81-5.03-10.99-8.36-10.7-5.66-8.62-25.64-15.04-34.2-7.33l-10.39-3.07c-12.09,1.06,4.22,13.88,12.96,11.51,2.93-2.83,3.78-3.56,7.82-3.32,15.76.95,23.52,14.41,1.66,4.71-3.55-2.06-20.73,1.91-22.09,3.92-4.06,5.99,9.28,3.85,12.52,3.09,6.88,1.26,13.64,3.26,20.3,6,5.98-2.14,9.88-1.58,11.7,1.68,6.22,2.51,6.12,5.66-.29,9.46-4.36,4.18-5.39,7.76-3.08,10.74l-2.85,1.03-2.49,17.72c-8.81,23.9-14.58,47.9-17.3,72.01-1.89-7.43-7.01-13.17-15.36-17.21-5.9-6-.4-26.15,5.41-30.97l-.5-3.19,2.93.23c2.71-2.57,8.88-38.6,7.36-39.98-1.9-1.73-3-1.64-5.33-.68-2.6,10.99-5.54,21.94-8.76,32.66l1.25,2.68c-3.08.25-5.62,1.95-7.63,5.08.99-4.51-3.57-31.41-11.64-24.38-2.29,1.99-.36,14.79,4.01,14.22l-1.83,2.6c3.77,3.59,4.42,27.07,1.69,28.73-3.51,2.14-8.69-12.2-6.26-15.72l-2.76-15.31-2.29-1.57c-.36-1.11-.79-1.09-1.27,0-.61-.85-.71-1.84-.75-2.85-.47-11.58-2.37-10.8-2.51-.08-2.1-.69-2.71.28-1.83,2.93-2.84,2.18-.86,5.64,2.54,5.08-2.84,1.99-2.05,3.09,1.27,3.81l.72,15.14c-.68.95-1.77.98-3.26.1-.2-4.03-7.34-11.1-11.45-10.17.68-2.16-.48-4.33-3.47-6.5-2.11-10.83-7.1-16.15-14.95-15.96-1.72-.57,11.43-30.32,15.54-32.01,17.79-5.75,26.41-18.24,36.43-33.2,6.88-10.9,16.24-12.52,28.46-12.66l5.08-1.47c3.03-2.03,5.69-4.52,7.96-7.47,2.36,3.1,6.58-.56,5.09-3.81,8.67,2.16,22.27-24.53,16.95-28.53-6.18-4.65-11.61,10.1-12.99,14.43-3.47,2.48-4.79,5.07-3.97,7.75-3.21-2.39-13.74,5.14-12.72,8.89l-2.52-1.48c-4.12,2.01-15.81,3.61-9.33-1.93l-.87-2.95,2.93-.18c2.57-7.79,6.26-14.93,11.06-21.42,4.06-1.97,13.56-6.74,15.54-11.47.34-.81.71-1.72.8-2.6,1.12-12.04-8.24-1.1-11.25,2.63-2.78-2.83-1.59-6.4,2.21-10.95l-.94-1.76c3.46,1.15,4.55-.82,2.54-3.81,8.85-2.37,13.07-21.94,1.16-10.69l-2.44-.75v-1.27c-.23-4.01-.65-7.82-1.27-11.44h-2.54c-2.61.2-3.44,1.96-2.49,5.29,3.51,8.39,2.72,15.89-2.38,22.53l1.05,2.68-1.66.86c-1.53,6.91-5.21,12.89-11.05,17.94-1.18-6.87-2.73-13.65-4.63-20.34l-1.74-1,2.57-2.63c2.17-7.79,6.17-15.42,11.99-22.88L1475.17,0h-1.27c-4.63,2.61-13.36,11.61-15.77,16.57-1.59,3.28-4.24,9.07.5,10.11l-2.05,2.77c4.9,13.61,8.44,27.77-1.62,40.01l1.12,2.96c-1-.36-2.11-.39-2.54.41-3.91,7.26-13.43,15.99-16.07,2.96l-3.01-.83c.93-4.51.94-7.62-1.04-12.16l-12.97-28.54c7.08-2.36,14.31-4.45,21.7-6.28l1.21-3.85c3.46.36,4.6-5.14,5.02-8.14.48-3.38-.35-13.78-2.48-16.01h-3.82c-1.89.28-3.17.61-3.45,2.61L1428.1,0h-2.54c-1.75,3.68.06,5.6,3.82,3.81l.72,3.33c6.89,2.46,11.76,5.83,6.57,12.88l.34,2.85-2.45-1.48c-2.91,1.56-18.96,5.06-19.17,3,1.4-8.64,1.4-16.77-.01-24.39h-6.36c-2.55.08-2.97.49-3.06,2.84L1397.57,0h-10.18c1.82,3.89,8.45,8.26,12.72,8.89.49,1.92,1.77,4.17,3.83,6.74-.03,8.53,1.15,16.99,3.55,25.39-11.2-2.75-22.2-6.63-33-11.64-3.62-1.21-6.53-.84-8.74,1.12l-3.85-.95c1.87,4.33-5.9,3.4-8.87,2.22,1.13-3.43-.84-4.74-3.82-2.54-.32-2.21-2.34-2.87-6.06-1.98-1.48-3.25-8.38-3.33-10.48-.56-1.45-2.24-2.3-2.24-2.54,0-6.18-2.65-12.28-1.92-18.63-.86-4.63,3.85-12.15,4.46-16.73-.51l-2.81,1.36c-2.25-2.16-4.59-4.39-7.48-5.66C1266.71,13.22,1248.23,5.16,1229.64,0h-7.63c-.95,2.78.49,5,4.33,6.65,10.98,5.21,8.04,4.9-8.8-.91L1183.85,0h-26.71s.08,2.8.08,2.8c16.91.37,33.47,5.93,49.55,11.56.72.25-13.59-2.4-14.49-4.31-5.62-1.63-26.1-6.19-23.92,2.67,8.67,2.26,17.54,4.15,26.62,5.67-9.66.53-19.41.06-29.24-1.42-7.3,9.08,19.22,10.87,24.78,10.7,7.28.71,11.84-.89,13.69-4.8,6.13-.56,6.84-1.13,10.18-5.08l3.7,2.14c16.66-2.14,33.62-2.1,49.46,4.1l4.08-1.16.64,2.97c14.87,4.85,17.95,7.98,9.23,9.38l-.96,2.9c-4.25.77-8.47.46-12.72,0-1.41-2.85-13.41-7.02-16.59-7.11l-2.49,2.03c-1.01-3.34-1.86-3.34-2.54,0-5.01-1.96-7.13-1.54-6.36,1.27-1.28,3.16,1.13,4.67,3.82,2.54.3,1.56,2.01,2.32,5.14,2.29,2.91,4.69,11.89,4.14,16.48,2.8,1.38,2.88,4.36,3.83,8.94,2.83,21.77-5.48,44.65-9.67,67.56-7.05l3.64-2.14c1.45,1.28,3.12,2.35,4.99,3.2,25.28,3.71,59.12,10.41,69.41,36.57l3.19.89-1.49,2.87c14.43,22.48-6.59,35.62-25.53,43.89-1.18,2.49-3.54,4.28-7.08,5.36-.49,3.36-1.84,4.2-4.06,2.52l.31-2.64c-12.11-16.34-21.43-36.67-24.5-56.76-1.13-4.32-4.52-9.54-8.89-10.49l-.95-2.76c-1.86-1.57-18.97-11.18-21.4-11.93-2.3-.7-21.48.21-22.16,1.11-2.9,3.86,2.99,8.78,7.36,8.22,14.38-5.29,31.12,9.74,9.39,14.9-7.68,6.87,9.13,10.07,9.94,1.89,3.25-.4,6.78-1.1,10.61-2.09,2.75,9.5,5.51,19.31,8.27,29.43l-8.49-5.32c-6.65-3.4-13.76-4.96-20.57-5.5l-2.67-4.15c-17.93-11.66-36.04-22.71-54.33-33.15l-2.79.45c-1.81-6.41-15.89-9.47-21.63-6.35l-3.18-3.05c-13.55-.55-25.73-3.09-38.23-7.84-14.18,4.06,5.52,10.55,12.46,11.93,7,1.4,17.91,3.38,23.86,1.49l1.82,3.03c8.73,1.91,16.62,6.03,24.15,10.67l3.29-1c.63,3.26,3.57,5.87,8.8,7.83-1.74-.24-2.84.84-3.71,2.34-3.13.22-6.44.25-9.4-.99l-2.05,2.26-2.48-.89c-9.91,1.64-19.55-1.9-28.92-10.62-5.58-4.72-37.36-8.5-26.82,3.02,16.95,3.99,30.01,8.77,44.08,19.18l2.7-1.79c.12,1.23,1.03,2.14,2.14,2.56,2.74,1.04,26.32-2.66,30.65-3.72l1.55-2.66c1.89,2.5,5.46,3.07,10.69,1.7,3.69,5.06,7.34,7.46,10.94,7.19l.7,3.58c10.68,6.04,21.89,10.95,33.62,14.71,12.5,5.42,22.89,16.09,27.9,28.58l2.65.15c-2.66,2.92.11,5.53,3.82,5.08-1.41,1.67-1.02,3.32,1.27,2.54,3.65,3.42-2.6,21.13-4.18,22.65-13.24-4-17.62,5.55-3.37,8.05l-1.58,7.13c-4.66-3.27-23.5-8.47-19.66.65l16.87,6.24,1.52,2.76-8.96,50.79c-4.71-7.55-8.95-16.51-12.72-26.89l-3.55-1.48c-.88-2.75-3.3-6.85-5.96-7.47.02-4.22-1.39-6.81-4.22-7.78.11-1.09.18-2.17.07-3.23-.5-4.8-14.78-24.42-19.08-29.43-1.31-1.53-3.31-2.26-5.15-2.93l1.04-3.02c-10.4-22.89-22.32-34.32-44.15-46.68-3.54-4-6.98-6.07-10.33-6.21-2.25-3.95-5.82-6.74-10.7-8.35-12.28-12.84-22.41-17.21-39.45-19.39-13.98-8.02-27.36-16.98-40.12-26.88l-2.6,1.26c-2.25-4.38-5.1-8.81-8.55-13.29l-2.9.58c.39-1-.09-1.38-1.27-1.27-.9-3.39-3.33-7.85-6.76-8.1-1.26-5.07-6.19-7.2-11.05-8.42l.27-3.15c-6.73-4.39-12.43-9.64-17.08-15.75L1107.52,0h-21.63s-1.15,2.66-1.15,2.66l14.69,14.33c8.59,8.96-6.14,3.43-9.99-.15-4.93,1.22-9.54.1-13.83-3.35l-2.44,1.76-3.41-3.6C1054.03,7.31,1038.2,3.42,1022.29,0h-12.72c.61,6.12,13.58,12.42,19.08,10.17,1.5,3.43,4.85,5.56,10.04,6.39-4.05-.72-6.55.11-7.49,2.51-7.5-4.62-20.65-9.68-29.67-11.07-7.42-1.14-20.31-1.23-15.57,8.81,13.29-1.46,25.82,2.02,37.6,10.42l2.55-1.8,1.39,3.02c10.64.11,21.25-.81,31.83-2.78,14.15,8.31,28.97,14.88,44.47,19.71l2.45-2.16c4.84,3.23,7.8,3.23,8.9,0l1.31,2.91c8.02,3.49,34.42,22.2,37.72,28.74.65,1.28-26.19-.51-28.5-2.6-19.11-6.84-37.6-12.22-57.73-13.65-3.04-3.86-7.37-4.8-13-2.79-17.9-4.67-34.91-12.21-51.03-22.64l-3.26,1.15-1.32-3.54c-17.26-6.52-31.9-16.09-43.9-28.73L951.05,0h-10.18c-2.49,1.67.59,7.72,3.82,7.62-2.64,2.98,2.89,9.89,6.36,7.62.51,3.97,2.06,5.89,4.64,5.79,1.48,3.38,4.56,6.02,9.24,7.94l-13.88.25-1.19-3.05c-6.67,1.08-12.06-.86-17.87-4.25-5.77-4.54-11.71-7.2-17.83-7.95l-1.21-3.6C906.05,6.03,898.82,2.57,891.26,0h-8.9c-1.11.36-1.09.79,0,1.27-.37,3.15.04,3.17,2.54,1.27-.06,3.68,2.96,3.81,5.09,1.27.1,3.15,3.07,5.27,8.9,6.35.3,4.88,13.59,12.54,18.3,13.91l3.33-1.2c2.42,3.48,5.16,5.5,9.18,6.78-3.47,1.06-6.52,2.61-9.18,4.65-10.18.45-5.72,9.93,0,3.81,1.65,4.39,10.42,1.29,11.45-2.54,5-1.28,10.26-1.34,15.27,0,.22,4.77,3.92,4.42,7.63,2.54l2.42,2.79c15.76-2.06,22.2.09,35.5,5.18,1.04.4,2.14-.59,2.79-1.62l1.95,3.38,13.69,5.69c22.84,13.39,45.62,22.24,72.61,23.08,9.88.86,17.57,4.76,25.16,10.37-24.17,1.14-48.36.61-72.56-1.6-39.41-7.01-78.28-14.1-116.6-21.27l-10.05-5.42-3.25,1.02-1.3-3.42c-10.9-7.31-20.79-15.82-30.53-24.62l-3.8.09c.52-4.11-5.5-8.62-8.9-6.35-1.65-3.57-4.4-7.03-8.25-10.37l-9.53-13.57L840.37,0h-12.72s-.37,2.25-.37,2.25c3.58,8.53,10.24,21.8,19.45,24.43-1.39,3.57.2,5.27,3.82,3.81,1.26,2.53.84,3.8-1.27,3.81-2.19-3.05-5.68-4.22-10.49-3.52-14.01-6.52-28.96-10.49-44.84-11.9-7.1-5.06-13.83-10.69-20.21-16.91L765.31,0h-6.36s.28,3.56.28,3.56l17.06,12.24-19.76-2.48c-1.91.16-3.64.81-5.21,1.92l-2.23-2.73c-12.38,1.32-20.38-2.5-23.98-11.44L722.06,0h-11.45c-1.26,2.28.44,4.61,5.1,6.99l3.77,5.17c-9.07-1.73-18.18-3.2-27.31-4.41l-3.18,1.14c-4.61-.82-10.16-.96-3.82,2.54l1.78,2.83c9.02,1.06,17.7,3.38,25.81,7.5l2.94-1.43c.72,5.59,16.66,5.58,19.08,1.27l6.47,2.5c27.57-.66,54.23,5.49,80.29,13.94l4.83-1.19,4.95,4.11c26.63,5.74,50.34,10.98,67.49,33.62l3.89.4c3.63,3.53,6.18,3.96,7.63,1.27,4.01,4.66,14.54,7.54,20.92,8.63,5.56.95,10.38.72,14.7-2.27l6.8,3.51c29.23,6.01,58.34,11.48,87.33,16.4,3.28,2.48-23.06,10.52-25.01,11.01-18.3,4.54-38.4,9.49-56.76,11.9-8.98,1.18-20.76,2.01-25.78-5.98-1.46,1.94-2.72,1.15-4.39.02.37-5.03-9.34-10.58-13.99-11.44,1.29-2.4-.04-3.32-2.54-2.54l.15-3.48c-6.04-7.96-18.16-20.88-26.32-26.4-2.84-1.92-24.29-12.94-25.67-12.56-10.24,2.76,7.57,13.93,11.87,14.46,1.01,3.29,2.25,4.54,4.8,6.74,2.59,2.23,9.46,7.31,12.27,6,1.75,3.45,3.45,6.41,5.09,8.89-3.39,1.92-5.48,1.44-6.25-1.44l-2.65,1.44c-3.27-1.42-3.86.26-1.27,2.54.13,1.43,1.82,2.28,5.09,2.54,2.12,1.82,5.57,2.3,10.36,1.44,3.01,4.56,5.91,6.62,8.72,6.18.2,5.06,3.88,9.5,8.9,10.17-1.12,2.39-.07,3.26,2.04,4.03-11.03-2.27-21.76-6.3-32.21-12.09l-2.91,1.7-1.35-2.74c-11.67.88-21.69-6.84-29.84-14.43-8.61-9.63-17.83-18.56-27.66-26.79l-3.48.76c-.73-1.92-1.77-3.75-3.52-4.9-17.23-11.33-39.14-23.68-59.09-29.05-9.73-2.62-23.8-6.34-32.8-2.89-.99-3.78-7.05-4.85-8.9-1.27-3.16-3.9-6.44-3.12-10.18,0-.72-2.44-1.83-2.43-2.54,0,.33-2.19-16.28-6.6-17.04-6.03l-2.04,2.22-2.69-2.85c-13.24,2.21-24.63.64-34.17-4.68C636.38,12.47,624.8,3.29,608.84,0h-20.35c4.12,4.58-7.6,5.41-11.31,4.93-1.11-.14-2.02.57-2.68,1.42v3.81c.23,3.71,3.16,4.41,5.09,1.27,5.3,1.46,10.38,2.74,15.27,0l1.87,2.52c15.68-1.4,29.99,3.98,42.94,16.14-14.95,1.73-29.62,5.76-43.99,12.08-5.93,1.68-12.12,2.5-18.25,1.54l-2.92,2.02-3.13,1.62c-.45-.03,4.17,6.6,11.21,7.74,11.42.52,19.95-.98,29.32-7.6,20.49-4.21,39.71-4.26,60.52-4.05l2.59-1.53c20.31,4.15,40.9,6.82,61.79,8.02l11.43,4.07c-18.54,9.41-36.72,11.54-58.18,10.58-5.75-1.23-10.33-.74-13.76,1.47l-2.27-2.96c-14.81-4.56-37.57-9.43-52.84-7.8-4.32.46-17.58,2.15-13.58,6.94,1.36,4.32,16.29,3.74,19.08,0-5.6,4.43-11.23,6.89-18.16,9.01-5.12,8.24,12.72,4.66,16.85,1.67,5.76-9.28,12.58-9.11,22.32-7.34,10.8,3.38,21.76,5.92,32.89,7.61l-20.92,11.55-.54,2.91c-1.64-4.12-16.45-3.94-18.45,0-5.28,6.86,19.01,4.59,22.1,3.93l2.07-2.66c3.71-1.32,5.17-.83,4.9,3.39l1.46.42,3.33-.56c6.03-9.35,15.53-16.35,26.86-17.15l2.25-2.62c.12.99.44,2.48,1.15,2.54,3.66.29,31.27.92,32.61,0,.93-.64,1.59-1.41,1.86-2.54.13.62.31,1.21.66,1.66,1.1,1.43,18.97-3.85,20.33-6.75,9.29-2.15,18.53-.05,27.72,6.3,8.09,1.22,14.95,2.86,21.03,9l19.22,18.38,3.28-.64.53,3.51c7.6,4.01,14.69,8.69,21.27,14.04-10.14,3.76-20.52,6.75-31.14,8.99l-.85,2.7c-5.05-3.81-17.27-7.54-22.9-5.08-1.87-4.79-11.4-9.42-16.54-8.89-.56-.99-1.16-1.95-1.9-2.79-5.29-6.04-34.49-16.9-45.11-17.37-3.02-.13-25.81,3.9-28.69,4.89l-1.9,2.56c-4.77.56-4.31,6.4,1.27,3.81,3.64,1.32,7.79,1.04,12.44-.83,20.18-1.35,39.63,4.06,58.34,16.24,2.94,1.45,5.64,2.25,8.09,2.38l1.44,3.38c20.22,5.67,17.11,5.66-9.33-.04-1.87-.26-3.48.49-4.83,1.74-1.89-4.26-14.22-4.99-17.81-2.54-1.64-.69-2.06.59-1.27,3.81-3.98-6.26-29.06,4.51-18.43,8.33,14.12-3.33,28.25-3.82,42.4-1.46l4.02-1.79c7.89,7.91,21.19,8.44,31.91,6.76,4.52-.71,13.83-2.59,15.16-6.76l5.19,1.21,23.61-6.97c6.59-2.15,12.81-2.68,19.45-.06,19.94,8.68,38.57,14.71,60.57,13.4l1.86-2.5c4.24,2.43,10.72,2.65,16.13,2.63-4.71.55-7.12,2.21-7.23,5l-2.23-1.84c-6.63,4-11.86,6.66-19.93,5.75-12.36,4.16-7.3,14.14,4.83,10.27-6.02,12.66-16.5,24.05-31.07,28.3l-1.22,3.26c-7.32-.31-10.29.96-8.9,3.81-3.73,1.09-4.58,2.37-2.54,3.81.32,1.15,1.18,2.47,2.18,2.24,9.67-2.19,18.91-6.31,27.83-10.54l.52-3.14c3.12,1.54,3.95.54,2.54-2.54l4.63-2.65c2.39,14.84,3.69,15.67,3.89,2.49l1.65-8.74c4.68-2.5,8.65-6.74,11.9-12.7,2.44-1.59,4.13-3.26,3.37-6.36l2.96.22c5-4.82,10.53-7.7,16.6-8.66,16.02.92,27.49-3.49,36.92-16.89,6.23-.56,12.51-.51,18.85.17.89-1.37,2.49-2.3,4.81-2.79,3.81,2.33,14.71-.04,19.68-2.09,2.82-1.16,19.29-12.87,22.56-15.45.87-.69,1.28-1.79,1.65-2.79.26.99.67,2.46,1.43,2.54,3.12.33,23.24.34,24.46-.85.42-.41.65-1.03.83-1.69,2.26,4.03,15.44-.91,15.9-5.08l1.74,1.29c25.14-5.89,52.24-6.61,78.49-6.26,7.15-5.03,32.63,7.33,35.91,12.18-12.4,4.59-24.85,9.17-37.34,13.73l-2.47,3.2c-2.45.65-5,1.02-7.54.6l-.09,1.95c.81,2.97,3.71,4.32,8.71,4.04-2.79,3.27-3.58,6.58-2.35,9.94-3.97-1.1-6.63,6.91-5.09,8.89-2.37.59-3.44.99-1.27,2.54-4.31,10.53-10.82,16.9-22.57,18.69l-1.6,2.91c-9.91,2.27-4.31,3.74,2.54,2.54,4.53,4.42,18.24-.16,22.74-4.54,5.2-5.06,18.74-25.59,21.84-32.27l-.06-3.85,2.88.56c3.25-6,17.21-16.09,9.91-3.88-2.25,4.67-1.85,7.89,1.2,9.67-4.65,2.62.95,11.12,3.82,13.98-2.22,1.85-1.37,2.69,2.54,2.54l-.8,3.45c2.9,2.83,3.71,10.74.08,12.77-9.02.26-13.69,10.58-2.15,8.87-4.72,18.15,5.06,14.83,9.83-.15,1.7-5.32,5.5-30.14-3.15-28.75l.03-5.03c-10.64-11.48,4.68-30.27,18.33-24.97,13.69,8.72,27.05,19.01,32.65,34.87,14.85,18.19,28.38,35.63,35.76,58.38l6.09,7.9c-.1,1.31-.14,2.62,0,3.9s.3,2.5.81,3.55c18.94,38.89,48.08,80.71,74.02,115.43,7.51,10.05,19.52,20.8,31.15,25.65l50.86,17.13c19.59,2.43,29,10.92,35.48,30.13,6.6,11.28,14.83,21.7,23.73,31.31,38.8,36.42,77.07,74.57,114.82,112.74,1.24,1.25,2.96,2.43,4.48,3.29,3.91,2.21-12.09,73.7-21.07,85.29-5.7,4.03-11.22,14.83-3.86,18.83-1.26.7-1.69,1.98-1.82,3.35l7.81,23.17c-2.41,16.53.45,30.94,8.57,43.23,7.74,19.57,19.45,65.73-4.98,76.5-4.42-7.1-9.84-4.69-7.17,3.36-5.47,1.53-7.64-2.94-6.53-13.4-5.8-5.43-8.73,4.21-3.53,7.38l-1.7-.13c-2.38,5.24-4.82,5.97-7.3,2.19-5.92.76-11.57.02-16.44-.79-3.08,1.43-1.53,6.19-.22,8.96-.95-1.29-1.8-2.32-3.59-2.6l-.09-2.76"/>
  <path class="cls-12" d="M1307.43.88l5.09,8.88c-9.17,1.82-18.82-2.49-27.33-2.57-2.04-.02-3.33,1.19-1.93,2.57,3.26,3.21,29.46,4.19,35.62,5.1,4.32,4.6,13.76,6.05,20.18,5.78l1.23,2.66c5.32,1.24,8.17,3.56,12.06,7.01-1.54-.2-2.31.81-2.94,2.34,2.64,2.12,9.7,2.74,11.03-1.24l1.69-.03c-5.24-2.15-13.24-10.96-19.5-14.2-7.96-4.11-14.33-4.28-22.48-6.13-1.54-3.56-7.45-8.46-11.45-10.17h-1.27Z"/>
  <path class="cls-10" d="M1915.52,49.16v-7.62s-2.56-5.07-2.56-5.07c-2.61-.38-.03,3.12-2.04,3.87-5.41,2.01-12.79.82-16.85-3.42-2.37-2.47-5.21-10.23-6.53-11.28-4.19-3.36.05,7.81,1.47,9.98,2.78,4.29,6.8,7.63,11.99,8.35,6.44.9,11.92-2.66,14.52,5.2Z"/>
  <path class="cls-33" d="M1594.94.88c1.01,2.02,1.84,5.19,4.44,5.1l.65-5.1h-5.09Z"/>
  <path class="cls-29" d="M1485.53,12.32c0-3.84,1.03-7.61,0-11.44h-1.27c.49,3.58-1.37,8.84,1.27,11.44Z"/>
  <path class="cls-25" d="M1898.98,256.28c.12-3.2,1.66-6.24,1.39-9.55-.74-9.28-19.05-14.65-26.84-15.85,5.49,5.28,14.6,5.43,20.22,10.92,5.19,5.07,3.55,6.13,2.67,11.94l-2.66.93c1.12,9.42-7.82,1.47-10.63-2.67l-3.25.47c-3.33-2.56-6.6-3.53-8.9-5.08-1.79-1.68-2.44-.97-1.27,1.27,2.5,1.79,5.5,5.81,7.63,7.62-.68,2.2.4,3.8,3.25,4.8-3.68-1.03-6.46-.93-8.34.29-4.14-1.86-7.15-5.33-11.45-6.34,1.65,2.54,5.09,6.17,7.63,7.61,9.08,5.16,15.15.31,22.9,2.54l.28,1.33c7.31,3.19,13.16,8.25,17.53,15.19-.06,3.15-2.91,6.67-2.54,10.17,1.13-2.06,4.72-6.8,5.09-8.89.9-5.02-.8-11.6-5.19-14.51-5.19-3.45-6.87.54-7.53-8.36-.09-1.24-.05-2.57,0-3.81Z"/>
  <path class="cls-3" d="M1560.59,160.98c4.89-1.57,9.5-3.87,14.44-5.28,3.13-.89,9.69-.72,11.09-1.62,2.15-1.39.75-6.65,1.18-7.08.3-.3,5.14.63,8.35-1.19,2.47-1.4,7.29-8.24,6.91-11.51-3.48,1.62-4.04,6.85-7.12,8.76-14.15,8.78-3.8-10.69-8.76-16.37-4.56,5.13.49,18.05-3.81,22.88-1.1,1.24-20.4,6.11-23.55,8.88v-19.7c0-.69,4.64-9.34,5.05-12.77.3-2.52-.36-1.9-2.49-1.85-2.68,12.74-8.21,14.78-5.1,29.23.57,2.67,1.39,6.66,3.82,7.62Z"/>
  <path class="cls-28" d="M1857,286.78c-2.11-1.58-3.12-1.22-5.41-4.13-1.39-1.77-6.04-11.57-6.04-13.03v-19.7s-2.54,0-2.54,0v24.78c0,.84,2.92,5.38,2.54,5.71-3.42.11-5.03-2.91-8.34-3.73-1.05-.26-5.97-1.02-5.65,1.19l17.69,7.11c2.24.65,4.05,4.88,5.2,5.61,9.66,6.15,25.06,6.27,33.08,16.52-.47-1.87-.89-3.22-2.52-4.46l1.25-.63c-10.16-7.22-19.98-8.29-29.26-15.25Z"/>
  <path class="cls-21" d="M1832.83,150.82c-3.72,2.72-5,4.84-3.82,6.35,3.62-1.49,7.64-4.18,5.09,1.27,4.2-2.6,13.95-6.53,19.08-8.89,1.09-.5,2.34-1.78,4.34-2.62,5.43-2.3,13.8-.59,14.8-9.41.21-1.85.67-3.77-1.95-3.21-6.26,8.09-18.06,11.4-27.37,16.51-2.79.23-4.49-.19-5.09-1.27.46-2.23-.4-5.26.26-7.99.69-2.88,4.96-5.52,2.93-8.52-7.79,4.95-5.81,10.67-8.28,17.78Z"/>
  <path class="cls-31" d="M1405.39,215.62c-2.27-.54-8.02-.1-10.66.16-1.44.14-6.99.58-7.14,2.37,11.56-1.19,20.78.86,29.25,8.9-9.22-2.96-21.09-.45-27.99,6.35l21.63-3.8c-1.65-.61-5.16-1.06-5.08-2.53,4.59-1.77,11.05,2.99,14.46,2.6.9-.1.75-3.59,3.34-2.61.85-3.23-8.59-8.41-11.45-7.62-1.38-.75-6-3.73-6.36-3.81Z"/>
  <path class="cls-15" d="M1579.67,232.14c8.33.34,29.82-10.03,33.32-18.21.66-1.55,1.15-2.98-.9-3.39-1.77-.35-10.46,10.28-13.43,11.97-6.63,3.78-15.2,2.77-21.53,8.35.93-.14,2.28,1.26,2.54,1.27Z"/>
  <path class="cls-32" d="M1424.47,177.5c-1.14-11.18,4.55-24.73-8.47-30.29-2.41-1.03-8.97-3.36-10.61-.21,4.92-1.38,15.19,5.73,16.33,9.83s-2.29,13.31-1.09,18.14c-2.65-1.5-3.22-5.31-5.71-7.62-1.14-1.06-2.99-1.92-4.45-2.53-1.34,1.37,7.93,11.2,8.89,12.71,4.69-1.84,1.32-6.97,3.18-10.18,1.8,0-.91,9.53,1.91,10.18Z"/>
  <path class="cls-26" d="M1559.32,75.85c.62-8.54,12.04-5.45,17.15-6.38,4.44-.81,8.38-8.25,8.29-12.67-4.58-.27-3.74,7.64-7.63,9.55s-6.99-.99-10.7-.66c-7.43.67-9.04,12.05-8.38-7.63-.44,3.47-2.72,11.47-2.58,14.52.05.95,2.17-.29,2.58,3.27.36,1.11.79,1.09,1.27,0Z"/>
  <path class="cls-19" d="M1554.23,177.5c3.59,1.56,10.11,7.47,14.63,7.75s21-6.01,19.71-12.82c-3.63-.74-2.42,2.6-5.13,4.38-10.79,7.09-17.47,4.65-27.94-.57l-1.27,1.27Z"/>
  <path class="cls-17" d="M1485.53,13.59c.08,1.36-.83,4.95,1.89,3.8,1.98-.83,4.37-5.61,7-6.34-1.58,4.75-5,9.58-7.62,13.98,1.78.24,8.08-.37,8.74-1.44.31-.5,1.5-11.16,1.34-11.73-1.45-5.17-8.88.39-11.35,1.74Z"/>
  <path class="cls-22" d="M1602.57,249.93c2.73,3.24,3.3,9.48,7.17,12.53,5.33,4.2,13.21,2.38,19.54,2.7l-17.02-3.95c-4.99-2.62-4.13-9.52-8.42-12.56-.17.57-.71,1.05-1.27,1.27Z"/>
  <path class="cls-35" d="M1872.26,3.42c-1.43,2.32-5.99,4.59-5.09,8.89,6.56-6.87,13.37-1.95,13.99-2.55,2.22-2.17-7.3-5.3-8.9-6.35Z"/>
  <path class="cls-19" d="M1779.4,125.4c-4.74-4.1-12.93-6.37-19.08-6.34,3.53,5.16,11.52,3.83,16.54,7.61l2.54-1.27Z"/>
  <path class="cls-23" d="M1845.55,52.98c-5.25,4.92-9.53-.64-11.92.06-1.34.39-4.46,6.05-5.89,7.55,2.95.6,3.66-2.9,5.97-3.55,4.32-1.23,9.71.77,14.38-2.79-.87-.42-1.61-.88-2.54-1.27Z"/>
  <path class="cls-34" d="M1696.71,12.32c-7.63-.24-3.16,2.83,1.27,5.08-.43-1.99-.4-2.95-1.27-5.08Z"/>
  <path class="cls-24" d="M1870.99,247.39c-2.24-1.51-6.94-7.62-10.81-7.62h-23.53s0,2.54,0,2.54h20.99c2.84,0,9.49,4.51,12.09,6.35l1.27-1.27Z"/>
  <path class="cls-10" d="M1910.42,32.65l-1.89-10.16c-3.4,2.36-1.22,8.59,1.89,10.16Z"/>
  <g>
    <path class="cls-18" d="M1484.26,82.2c-13.08,8.73-13.15,5.75-27.24,7.74-14.08,1.98-24.39,27.73-35.06,36.13-5.34,4.21-15.9,7.09-19.17,10.42-3.59,3.66-17.52,33.59-15.2,35.91,13.13-4.36,11.78,6.1,15.99,13.88,1.38,2.55,4.03,3.49,5.63,5.18,4.16,3.73,5.9-1.92,7.09-5.83,3.26.87,6.25,1.04,5.63-3.07-1.02-2.31-1.03-2.72-2.54-5.08,1.04-3.85,2.18-7.35,3.41-10.52.79,3.25,1.35,6.76,1.68,10.52h1.27c2.97,3.62,9.18,6.29,11.45,1.27-.57-2.08-3.37-11.8-2.54-12.7,1.64-.29,2.18,0,3.11,1.33,1.23,1.76,5.31,17.2,7.06,21.53,2.32-1.77,4.86-3.46,7.63-5.08,6.14-8.41,1.68-13.44,7.04-21.55l3.12-14.02c1.32,9.44-1.75,17.3-3.67,26.17-1.46,6.71,1.15,7.35-3.95,14.48-3.44,1.52,1.8,9.26,4.04,9.44,3.89.31,7.87-5.67,8.53-9.38,6.31,2.3,10.2-1,6.19-6.85,2.76-3.7,1.01-6.12-2.13-8.64,1.3-2.93,1.23-5.6-.22-8.01,3.33-.25,5.41-.98,6.53-4.5,5.54.04,6.23-4.34,2.66-8.05,1.83-1.86,4.32-2.98,7.47-3.38,1.95-7.26,7.52-12.51,13.97-15.88-5.11-3.65-11.74-6.16-12.71-13.34-9.12,11.18-16.39-.31-27.5-1.17-5.17-.4-9.36,1.66-14.45,1.16l15.89-3.9c9.4-.66,17.95,11.46,22.95-1.17-4.78-4.9-17.38-9.42-23.97-7.37-1.81.57-2.83,3.04-4.33,3.43-1.2.31-15.81-4.81-13.09-7.5,3.25,1.23,9.1,3.58,12.37,3.52,2.49-.05,3.2-3.28,7.31-3.64,6.26-.55,19.16,3.82,24.18,7.75,4.41,3.45,5.91,7.24,10.82,11.43,4.36,1.46,6.53-8.31,1.59-9.8,2.91-7.47-.21-13.29-7.2-6.63.42-7.56-3-9.39-10.26-5.49,1.37-4.46.56-8.69-.55-13.07,3.89-1.46,6.27-5.64,1.16-5.67Z"/>
    <g>
      <path class="cls-18" d="M504.09,1.45l2.31,2.74-3.91.85c4.17,3.08,2.84,9.29,4,11.76.71,1.53,3.45,2.79,3.35,3.09-.55,1.55-6.27,1.85-7.66,3-.37.3,1.41,4.25-5.43,4.81.03,4.62,8.86,5,9.22,5.61.29.5-1.68,5.58-1.74,6.96,2.29-1.37,6.06-1.16,5.54,1.87-.37,2.11-6.2-.62-7.63-.46-2.49.28-3.84,3.82-8.38-.37-2.62,7.45,9.09,10.87-.59,15.16,5.11,1.89,6.11,6.25,9.04,10.03,4.07,5.26,6.55,2.79,3.96,11.82,2.13-1.62,9.96-6.66,10.44-1.93.03.29-1.39,1.01-1.39,1.37,0,5.31,3.52,1.15,6.73,2.29-3.9,4.31-1.92,6.2-2.34,9.11-.28,1.93-4.08,3.86-3.03,6.65,2.96.89,9.53-3.11,10.05-3,1.42.3,1.7,5.69,2.38,6.61s2.44-.77,2.6-.7c1.92.8,4.11.27,6.57-1.59l10.64-3.23c2.77,2.91,5.98,3.95,9.92,3.32-1.7,3.2-.33,5.25,2.61,7.04-4.52,12.31,6.67,6.84,12.87,3.26,5.49,3.33,8.23,4.79,7.94-3.36-5.56-16.39-12.11-26.56-24.5-38.71.95-5.7,13.68,11.1,14.56,12.06,2.28-1.92,3.59-2.2,3.93-.86,1.18,5.89,4.79,11.28,6.92,16.61,1.33,1.71,2.96,3.04,4.9,4-.11,5.38,4.52,11.28,5.97,4.33-.03-.32,1.13-2.12.93-3.9-3.51-30.04-.12-52.02-25.97-72.98.59-1.1-8.98-8.36-9.01-7.74-.04,1.03,9.4,6.18,11.63,4.7,10.36,17.78,23.08,16.26,25.55,44.07.86,9.69,2.41,19.52,3.21,29.11,2.22,9.77,7.93,5.98,9.11-2.05,2.69-1.87,3.94-4.34,3.73-7.39l3.59-2.97c11.81-.23,6.93-6.02.69-10.84l3.7-3.77c-.8-5.04,8.36-3.37,12.65-2.4,5.54-2.37.97-11.47-3.04-13.84-2.35-5.28-12.74-11.47-15.1-15.44l-18.21-30.61c-.91-1.53-1.92-2.96-3.01-4.28"/>
      <path class="cls-18" d="M528.88,22.78c-.7.36-1.42.65-2.16.79-4.2.77-8.55-.46-12.88,1.59v31.27c0,.96.43,1.37,1.33,1.39-.24,6.77,2.15,10.38,8.36,5.21l7.22,3.11c-.96,3.92,3.91,4.85,6.35,3.79,3.36,1.02,4.69-.94,5.97,3.53,4.47-.93,4.61-5.07,5.38-5.62.41-.29,3.12.71,4.15-.05l-.7-2.83c3.35-.07,2.61,5.07,5.63,2.84.6,3.14-1.14,2-3.52,2.14-.96,2.32,2.13,4.66,2.13,6.04,0,1.26-1.76,1.77-1.42,3.19l4.22-.7-.7,2.12c2.65-1.12,5.23,1.29,6.74,1.44.93.09,2.31-.86,2.42-.72.58.71-.89,3.54-.74,4.54.04.26,2.42.54.75,3.99,2.21,1.31,4.89-2.83,5.28-2.83.32,0,2.18,2.4,2.82,2.83,0-1.49,1.16-3.25,2.46-2.12.9.78-2.05,2.8-2.38,3.53-.57,1.28.73,2.94-2.55,3.92,2.81,3.39,7.75-1.26,7.05,4.62,2.35-1.91,4.71-1.15,7.33-1.48,3.66-.45,3.19-2.35,6.75,1.47-.17-1.49-.35-6.69,2.04-5.57.15.07.09.96.26,1.06,2.53,1.52,1.54-1.36,3-2.58.95,3.11,2.41,2.69,3.67,3.73.84.69.68,3.06,2.31,3.36,1.26-1.17,1.22-5.47,1.42-5.69.54-.6,3.19.81,3.82.75s.33-1.39.4-1.45c.93-.69,1.29-1.9,1.1-3.61l1.48-6.04c2.17-.5,3.57-1.75,4.39-3.82,1.04,1.73,2.4,1.66,4.09.76,4.58,5.69,5.14-1.25,5.2-5.25,3.14-1.68,4.61-2.58.65-4.78-9.38-2.01-16.08-1.78-25.37.71-2.45-2.09,9.16-3.4,9.86-3.55-.27-1.64-.03-2.36.7-2.13,3.14,1.12,6.73.92,9.87,1.42,1.19-.15,2.29-.55,3.29-1.21,2.53,1.59,6.65,1.06,3.75-1.63-.16-.07-.69-1.15-1.59-1.56-15.3-6.9-24.8-14.82-42.11-8.39-.35-.6-6.52,1.93-6.24,2.12.48.31,5.61-2.75,5.53-4.25,11.4.1,14.28-6.44,28.22.33,4.86,2.36,9.98,4.42,14.77,6.78,5.28,1.73,5.1-2.1,1.6-4.97-.13-1.83-.95-3.13-2.46-3.91l-.39-2.58c3.24-5.74-.9-5.05-4.97-3.43l-.75-2.85c-2.63-1.06.76-4.98,2.44-6.77.44-3.34-5.19-3.75-7.45-2.5-3.18-.38-9.07,2.84-11.63,2.84h-19.74c-7.93,0-14.26,4.94-17.97,11.37l-.77-.12c.09-2.47-.54-2.9-2.75-2.01-2.13.2-4.48-.1-6.69,0s-5.39,2.09-6.7-.72h10.22c.86,0,13.21-7.09,15.19-8.17.99-.54,1.73.05,1.37-1.78-9.75,2.6-22.72-6.85-31.52-3.71-2.77.99-4,4.05-5.15,4.75-1.56.95-5.18.48-7.02,1.8-.37-2.12.54-1.13,1.65-1.5,2.97-.99,6.76-1.8,7.51-5.61h-10.57c-.16-1.03,1.22-.96,1.97-1.2,13.09-4.22,24.25,1.49,36.09,3.34,2.26-.02,3.43-3.57,1.92-5.28,2.63-4.55-3.44-4.97-6.56-2.74l.55-.84"/>
      <path class="cls-18" d="M1542.6.88c-4.56,5.13,4.75,14.29,10.12,7.65,6.86,7.57,6.25,10.17-1.83,7.8l-1.93,2.34c-2.26,3.99-4.75,8.95-5.09,13.98-6.48,13.27-.89,22.97-1.27,35.58.17,2.29.54,2.78,1.1,1.49-2.6,9.39-.91,12.13,5.09,8.21-.6,5.45,5.27,10.74,6.53,4.27-.21-5.28,2.55-35.55,5.11-38.12,1.79-1.79,2.35.15,2.56,1.91.42,3.49-.83,8.35-1.3,12.07-1.62,6.7-1.2,12.63,1.27,17.79.55,4.49.55,9.15,0,13.98,0,13.27-13.74,12.21-17.89,19.62-1.68,3-.75,5.49-1.87,8.3-3.36,8.39-15.5,20.27-22.22,26.73l-.34,2.49c-4.48,1.47-7.34,2.95-4.3,7.79-8,5-1.33,8.16,4.84,9.39,2.87.36,5.69,2.27,8.45,5.73,3.12-2.2,6.38-3.98,9.78-5.34.99-5.81,5.91-5.14,10.83-3.54,6.65-.7,11.34,2.51,10.18-7.62.68-4.96,1.27-10.25,1.79-15.87l.75,1.26c-3.29,4.29-1.74,14.11,0,19.7,3.85.31,4.27,1.16,1.27,2.54-5.07,1.63-9.59,2.25-13.99,3.81-4,1.91,1.88,6.73,2.09,4.9.09-.79-2.02-.38-2.09,1.45,3.02,1.45,5.95,3.61,8.9,5.08.25.96-.21,1.35-1.27,1.27-3.12-1.36-13.87-5.04-16.37-3.6-.65.37-.79,3.02-1.44,3.6-4.08,4.17,2.15,6.29,6.04,7.45-2.43,5.01.42,7.54,8.55,7.6,4.97,4.17,8.26,6.6,14.07,9.23-3.45,1.64-3.62,4.65-.5,9.05-5.78,4.11-10.17,17.34.81,13.9-4.46,3.45-5.34,6.45-2.64,9.03-7.15,3.2-2.07,9.47,4.21,8.55,5.05-2.36,6.22-7.95,10.18-11.44,2.6.15,5.44-.76,7.87-1.76.3-.12-5.82,1.1-5.33,3.03l-2.54,11.43c2.51-.82,5.08-.87,7.62-1.27,2.78-2.02,4.64-2.58,8.08-3.03l1.45-3.43c1.38,2.84,3.29,4.57,5.74,5.19,10.2.31,20.39,2.24,27.98,9.55.51,2.62-1.05,2.16-2.92,1.64-4.33-1.2-16.65-9.46-21.17-5.98-.47.37.09,1.86-.08,2.41.35,1.69.32,2.17-1.27,1.27-.34-.41-1.83-.82-2.54-1.27-5.03-1.38-8.74,3.69-10.15,8.11-7.36-2.7-9.07.95-5.12,10.95-4.96,2.88-10.72,8.38-.81,10-.45,3.92,2.79,6.09,9.71,6.52,2.16,2.8,2.58,4.77,1.25,5.9l-.37,5.61c-8.07,7.8,1.22,10.99,9.14,7.83,1.74,6.6,6.03,4.89,9.85.98,4.56-1.44,9-3.1,13.33-4.99,7.22,4.14,8-.29,6.79-6.77l1.3-4.43c11.96,9.07,17.24,7.91,15.85-3.48l5.47,1.57c3.65,5.07,6.62,5.62,8.9,1.64,4.07.93,6.49-1.11,7.25-6.12,3.54,1.68,6.58.64,6.97-3.54,1.41,2.27,3.56,3.32,6.21,2.62,7.1,8.34,11.45,1.04,9.76-7.29,5.45-1.72,6.6-3.62,3.43-8.37-.2-4.89-.8-9.65-1.79-14.28,6.89-6.31-.64-11.79-7.67-6.87-.78-7.66-3.54-10.83-8.28-9.49l-1.1-1.52c4.08.51,11.11.05,10.38-4.91-.81-4.01-.45-18.88.01-23.49,1.11-11,6.51-12.07,5.07-24.79-1.84-3.95-6.18-6.31-13.04-7.08-.62-6.3-3.06-7.92-9.03-5.61-4.22-2.06-8.76-3.04-13.63-2.93-4.24-11.57-10.5-4.63-8.83,4.75-8.31-1.64-11.79.15-10.44,5.38-4.8,1.3-12.52,2.37-4.19-1.81l.54-2.2c-5.62-4.83-5.89-7.63-3.99-15.08,7.69,8,9.91-2.13,9.92-9.14,6.49-.89,5.33-4.44,3.3-9.21,3.46-1.16,4.61-4.13,3.46-8.91,3.31-.8,4.41-2.95,4.07-6.17,2.88,1.84,6.16,3.16,8.29-.19,6.83,3.11,8.57-.72,5.23-11.5l-.93-2.72c-4.39-5.55-11.04-15.07-16.54-19.06l-1.14-3.1c-6.19-1.22-6.14-11.6-2.06-15.62l.66-2.88c-1.76-2.03-12.52-10.13-14.42-9.95-2.29.21-5.16,3.97-8.1,4.61-5.47,1.2-9.87-1.46-14.36,4.07,1.59-8.78,15.7-2.97,20.32-10.8-15.61-15.87-38.47-3.02-47.28-26.45-2.24-5.96-1.61-9.22-2.31-14.85-.52-3.54-2.92-3.47-3.82,0-2.09,1.36-1.59,2.73-.89,4.58-15.04-3.15-16.39-5.8-4.06-7.94,1.08,2.87,2.73,3.99,4.95,3.36,2.07-.03,2.73-1.78,1.98-5.27,0-.27-.79,5.51,1.84,4,4.2,2.78,3.03,9.21,4.82,13.61,3.96,9.74,14.23,14.57,24.43,13.07l-19.08-38.11h-52.16Z"/>
      <path class="cls-18" d="M1910.25,450.69l.46-2.81c-3.23-2.39-6.35-4.78-9.35-7.17.67-9.55-6.03-8.5-9.87-.94l-3.19.03c-3.89-3-7.99-4.43-9.49,1.61-7.24-3.12-11.62-2.55-13.14,1.71-1.96-3.82-4.18-5.83-6.63-6.03-1.73-9.95-9.03-3.36-12.02,2.67-3.36-.52-5.9.37-7.61,2.67-11.31-6.24-15.17-3.85-11.6,7.15l-4.84,1.05c-2.54-2.94-6.66-3.68-12.34-2.22-5.09-5.82-8.55-6.55-10.39-2.19l-3.58-.51c-4.49,1.12-8.33,6.51-10.61,10.12-1.71-2.7-3.93-3.14-6.9-3.42-6.19-8.8-9.91-.03-9.02,7.41-7.66-.53-7.23,4.69-2.88,9.1-.78,2.79-1.49,5.72.99,7.98-3.89.69-3.34,13.85.61,14.61l5.04.49c-.87,3.35.92,5.45,3.31,7.55-9.27,8.33-6.42,17.04,3.43,22.25-1.77,5.5-.52,7.35,5.31,7.88,2.78,1.96,5.65,3.01,8.6,3.15.74,3.06,3.25,6.32,6.31,4.29,4.19-4.49,3.55-16.59,11.44-14.62-4.6,3.53-5.84,9.07-6.35,14.61,5.52-.78,21.07-4.17,22.63-9.78.68-2.42-.2-5.18.33-7.29,1.31-5.17,4.05-10.21,3.76-15.95,2.33.24,1.4,6.71,1.15,8.14-.79,4.46-3.63,7.72-3.7,12.17,3.64.53,5.43-2.55,8.58-3.55,1.85-.59,4.21.1,5.41-.26,2.08,1.41,1.24,2.68-2.54,3.81-7.41,3.7-10.05,8.73-14.91,11.15-5.74,2.86-15.13,3.14-20.71,7.91,1.44,1.97,2.93,2.11,5,1.77.82,6.57,2.74,6.78,8.31,4.82l6.75-.23c2.55-3.33,6.02-1.96,9.19,0,2.94-.9,7.97.02,10.8-2.56,3.69-3.36,1.8-11.07,6.38-13.96,2.53,4.44-2.22,8.28-1.91,12.69,1.46,1.55,24.05-13.67,24.81-15.23,1.28-2.66.47-6.05.64-8.9,2.29.22,1.45,6.83,1.2,8.19-1.74,9.16-15.23,7.49-10.11,17.2l-4.45-3.78c-7.96,8.32-18.89,8.92-28.63,12.68-4.99,2.99-1.07,6.75,3.7,7.17.36,3.26,1.45,5.47,4.91,5.64-1.66,1.6-2.61,2.72-.98,4.98.5.15,1.54,3.54,5.22,3.21,4.37-.38,6.83-4.03,10.04-5.75,2.43.13,14.26-.74,7.47-.59-1.2.03-3.09.1-4.14.49-.38.14-.61.7-.79,1.37-2.51,2.74-7.82,4.34-5.76,8.86,1.94,4.26,16.83,10.92,19.76,16.55,5.06,3.65,4.21,4.5-2.54,2.54-2.77-2.65-5.23-4.95-8.89-6.35.87,4.67-3.26,7.12-3.84,11.43-2.92-.03-.4-3.92.02-5.07.51-4.05.03-7.57-1.27-11.44-1.13-.89-3.6-1.8-5.09-2.54-2.56-.93-4.61.76-6.15,5.08-6-3.9-9.82-3.82-11.47.25-6.46-.95-12.9-.23-7.52,7.35-10.13-.63-8.44,5.22-3.1,11.2-10.85.81-6.9,15.78,1.8,15.93-6.03,3.15-2.82,14.36,4.69,14.04-1.72,3.75-.69,5.4,1.93,7.85-.29,6.63,3.88,6.54,8.32,2.68-.39,3.86-.08,6.32,4.21,7.08-.37,10.31,8.96,6.37,12.75.07,2.96,2.33,6.72,3.25,8.37-.78,3.73,5.2,9.59,11.46,14.14,4,.52,3.74,3.26,4.16,6.52,2.94,4.01,10.96,11.21,1.63,12.79-5.54,5.99.82,7.79-3.26,3.93-7.56,5.9,6.63,8.65,1.64,7.28-4.87l3.4,1.86c-1.37,6.04,3.21,9.08,5.51,3.22v-171.54s-.69-3.2-.69-3.2c-5.74,2.31-9.83,3.26-10.79-3.93,4.77-.75,8.6-2.61,11.48-5.58v-2.54c-.6-2.08-1.5-3.89-2.71-5.43,3.2-7.16.08-10-6.19-8.55Z"/>
      <path class="cls-18" d="M574.5,55.52v55.91c.01,1.73.78,2.46,2.4,2.49-.44,12.1,3.87,18.56,15.08,9.31,0,0,4.34,1.86,13.03,5.57-1.73,7.01,7.06,8.67,11.47,6.77,6.06,1.82,8.46-1.69,10.78,6.31,8.08-1.66,8.32-9.06,9.71-10.04.74-.53,5.63,1.27,7.49-.09l-1.27-5.07c6.04-.13,4.71,9.07,10.16,5.07,1.09,5.61-2.06,3.58-6.35,3.82-1.73,4.14,3.84,8.34,3.84,10.8,0,2.25-3.17,3.17-2.56,5.7l7.62-1.26-1.27,3.79c4.78-2.01,9.43,2.3,12.16,2.58,1.68.17,4.16-1.54,4.37-1.29,1.05,1.26-1.61,6.33-1.34,8.11.07.47,4.37.96,1.36,7.13,3.98,2.34,8.82-5.06,9.54-5.05.58,0,3.93,4.3,5.09,5.06,0-2.67,2.1-5.81,4.44-3.8,1.63,1.4-3.7,5.01-4.29,6.32-1.03,2.28,1.32,5.25-4.6,7.01,5.06,6.06,13.98-2.25,12.73,8.27,4.24-3.42,8.5-2.05,13.24-2.64,6.6-.81,5.75-4.2,12.18,2.64-.3-2.66-.63-11.97,3.68-9.96.26.12.16,1.71.47,1.89,4.56,2.72,2.79-2.43,5.41-4.61,1.71,5.55,4.34,4.81,6.63,6.67,1.52,1.23,1.23,5.48,4.17,6,2.28-2.09,2.2-9.78,2.56-10.17.98-1.07,5.76,1.45,6.9,1.33s.59-2.49.73-2.59c1.67-1.24,2.34-3.4,1.99-6.46l2.66-10.79c3.92-.9,6.45-3.13,7.93-6.83,1.88,3.1,4.34,2.97,7.39,1.36,8.27,10.18,9.29-2.24,9.38-9.39,5.67-3.01,8.33-4.62,1.18-8.54-16.93-3.6-29.02-3.18-45.79,1.26-4.41-3.73,16.53-6.08,17.8-6.35-.48-2.94-.06-4.21,1.27-3.81,5.66,2,12.14,1.65,17.81,2.54,2.15-.27,4.13-.99,5.95-2.16,4.57,2.84,12,1.89,6.77-2.92-.29-.13-1.24-2.06-2.87-2.79-27.61-12.34-44.76-26.5-76-15-.64-1.07-11.77,3.45-11.26,3.78.86.56,10.12-4.92,9.99-7.6,20.58.19,25.77-11.52,50.94.58,8.77,4.22,18.01,7.91,26.66,12.13,9.53,3.09,9.2-3.76,2.89-8.88-.23-3.27-1.71-5.6-4.44-6.99l-.71-4.61c5.84-10.27-1.63-9.03-8.97-6.14l-1.35-5.1c-4.74-1.89,1.38-8.91,4.4-12.1.8-5.97-9.36-6.7-13.45-4.47-5.73-.68-16.37,5.08-20.99,5.08h-35.62c-14.31,0-25.73,8.84-32.44,20.33l-1.4-.21c.16-4.41-.97-5.18-4.96-3.6-3.85.36-8.09-.18-12.08.01s-9.73,3.75-12.09-1.28h18.45c1.56,0,23.83-12.67,27.41-14.6,1.78-.96,3.12.1,2.48-3.18-17.59,4.65-41-12.26-56.88-6.64-5,1.77-7.21,7.24-9.3,8.5-2.81,1.7-9.35.87-12.67,3.21-.67-3.78.98-2.02,2.97-2.68,5.36-1.77,12.2-3.22,13.56-10.03h-19.08c-.29-1.85,2.2-1.72,3.55-2.15,23.63-7.54,43.77,2.67,65.14,5.97,4.08-.04,6.19-6.38,3.47-9.45,4.75-8.14-6.21-8.89-11.83-4.91l2.31-3.5c5.33,1.46,10.83-3.79,4.78-6.29-21.59-1.43-40.93-1.89-62.69,2.82-4.81,1.04-9.39,6.11-14.57,7.05-7.58,1.38-15.43-.83-23.24,2.84Z"/>
      <path class="cls-18" d="M1741.05,135.57l-1.78,12.8c3.17,2.66,4.86,6.32,5.07,10.97l5.09,4.31c-5.76,9.35,1.05,12.34,8.45,5.97,2.34,4.51,6.03,6.74,11,5.07,5.4,5.57,11.56,5.85,9.27-3.33,9.02,4.05,11.64.36,8.38-8.37l12.95-1.33c1.99,5.94,3.25,8.04,9.51,3.86,2.99.38,4.94-.28,5.85-1.98-.29-4.62.22-9.35,0-13.98-6.53-2.05-15.34,8.81-19.71,8.81-4.12,0-11.47-9.29-19.24-10.02-6.8-.64-10.91,3.49-17.01,5.02l7.99-6.62c11.64-4.24,12.8-1.42,22.53,2.82,2.22-.48,3.49-2.17,3.82-5.08-3.67-4.62-9.16-15.11-12.72-17.79-.09-1.08.76-1.5,2.54-1.27,3.52,3.04,5.95,8.64,8.93,12.04,5.36,6.12,9.23,12.63,17.42,8.55,9.14-4.56.06-10.19-4.27-14.7-.75-.78-.62-2.79-1.75-3.93-6.59-6.64-14.49-5.41-17.55-19.38-.42-1.9-1.05-3.4,1.64-2.91,2.87,4.01,5.39,10.55,9.03,13.86,3.45,3.14,9.46,5.28,13.92,8.97,5.66,4.68,9.62,9.9,12.69,16.52,3.17,0,7.26-14.26,12.08-13.95,1.3,1.34-9.29,15.48-9.89,17.43-.42,1.37-2.03,13.79-1.54,14.33,2.56.61,3.5-1.53,5.08-2.54,2.14-3.14,4.68-6.1,7.63-8.89,2.63-2.6,4.33-3.03,5.09-1.27,1.16,1.28,2.85,1.7,5.09,1.27,2.82.44,5.99-.49,9.52-2.79l.65,1.52c-2.69,2.58-5.57,9.54-3.47,12.74-8.99,6.87-.02,11.62,7.78,10.87l3.33,1.8c10.72-8.85,13-24.99,24.77-34.34,4.17-3.32,8.92-2.78,13-4.8,5.58-2.76,10.53-7.87,16.93-9.14v-15.25c-.67-2.03-2.86-2.89-6.57-2.58-3.46-4.71-6.48-8.1-9.98-1.27-4.18-1.73-5.61,1.72-6.52,5.22-3.22-1.47-5.63-.94-6.48,2.71-2.09-2.64-6.39-3.19-6.42-.64l-2.2-.89c-15.98,13.5-31.22,4.36-48.98,6.35-6.29.7-11.76,4.98-18.43,3.81-.57-3.23.49-2.29,2.54-3.11,3.38-1.35,13.8-4.08,17.32-4.39,12.29-1.06,26.39,7.73,36.07-5.89.6-2.46-.67-1.56-1.56-2.19-15.27-10.92-28-20.69-48.09-16.89-6.39,1.21-8.38,4.95-13.91,7.06,3.2-9.83,17.95-10.54,26.7-10.17l-6.97-10.17-8.28-7.6c6.9-.13,10.51,8.98,14.58,12.74,5.94,5.48,13.68,5.5,21.07,9.44,4.7,2.51,9.11,6.84,13.95,9.57,5.84,1.19,3.86-11.46-1.92-11.46-.87-6.13-3.68-10.72-8.67-4.16l-4.37-7.95c7.62-1.33,10.35-4.13,8.16-8.4,4.99-2.74,7.41-7.04.63-9.18l-1.47-3.32c-1.99-1.26-5.4-2.73-7.63-3.81-1.85-.09-4.83.73-6.61,1.49-.26.11,5.14-.45,4.07-2.76-5.67-2.39-5.82-1.45-10.74-2.62-4.59-1.1-10.28-4.22-15.24-3.73-2.11.21-14.61,7.85-17.17,9.63-14.91,10.32-17.67,16.33-26.78,30.43-3.77,5.83-12.49,8.71-17.77,12.75-14.86,11.37-15.93,18.87-20.44,36.13Z"/>
      <path class="cls-18" d="M1915.33,174.96c-6.39.82-13.46,1.78-10.32,10-1.97,1.63-3.37,3.56-4.2,5.81-5.4-.33-10.31-2.64-14.74-6.91-5.78,4.05-10.97,8.46-16.54,12.71-2.12,2.51-2.55,5.9-1.29,10.17,0,.47.13-9.59-2.53-7.63-10.17,7.84-19.41,13.44-28.57,21.65-6.94,6.22-13.25,10.21-18.24,18.63-10.02,16.89-7.91,42.31-12.98,61.37.66,2.18,1.39,4.18,2.19,6.02l9.61,2.73c2,4.44,4.49,5.87,7.48,4.3,3.76,6.34,9.75,10.67,9.98.32,7.56,6.72,11.29,1.85,10.18-6.71,7.38,3.42,9.7.66,13.54-5.77-2.27-5-2.89-6.54-.83-11.05,2.3-3.27-4.55-7.51-7.44-9.25.66-2.62-1.05-7.3-4.01-6.63.62-.02,1.21-.1,1.7-.37,1.04-.58-.28-21.36-.42-23.58-.02-.3-.57-.57-1.27-.82.41,3.37,1.58,3.23,2.54,0-2.19,4.24-2.09,15.2,0,19.7-3.01,4.95,5.25,19.31,11.45,17.15,3.06-.25,4.39-3.43,4-9.54,4.02.83,6.68,1.35,7.84-3.48,5-1.01,4.88-4.72-.38-11.12.47-.95,1.74-1.37,3.82-1.27,2.54-1.36,4.24-3.06,5.09-5.08,1.3-3.78-4.43-6.96-7.63-7.62-1.33-3.13-8.97-9.41-12.09-6.35-.1-.71-.22-1.26-.38-1.27-6.09-.5-15.78-.69-20.61,1.27,3.38-.4,3.23-1.57,0-2.54.11.71.23,1.26.38,1.27,6.31.4,16.02.52,22.32.18.3-.02.58-.64.84-1.45,2.03,2.86,7.42,6.65,10.81,7.62,1.24,2.27,6.04,7.32,8.9,5.08,2.1,1.13,3.03.72,4.38-.97.47,6.25,8.54,4.75,12.16,2.24.63-1.37,1.48-.53,2.54,2.54,1.67,1.77,4.07,3.16,7.2,4.17,2.87,5.68,5.98,7.26,9.34,4.72v-90.22c-1.25-.11-2.59.16-3.82,0Z"/>
      <path class="cls-18" d="M1149.51.88c-5.44,1.08-11.08,1.11-16.54,0h-25.44c4.14,9.81,13.35,13.87,20.35,20.33l5.16,2.51c3.62-2.07,5.31-.26,5.09,5.43,3.88,1.98,6.33,4.42,7.56,8.58.42.42.87.84,1.27,1.27,2.85,2,5.82-5.24,3.02-4.06,1.25,1.68,1.7,3.84,1.34,6.49,3.23,4.12,5.59,7.55,7.09,10.28,9.5,6.84,36.51,27.29,46.03,29.63,4.26,1.05,7.86.35,11.57,1.15,9.61,2.05,16.06,11.85,23.86,16.83,3.52,2.25,8.15,2.65,11.4,5.77,1.48-1.26,2.38-6.9,2.33-9.33l-2.44-4.79c4.28-3.52,1.23-6.7-2.44-8.75-4.64-.77-15.87-10.62-22.91-13.33s-16.16-3.19-22.02-5.96c-1.37-.65-3.13-1.69-.88-2.96,1.74-.99,15.22.64,17.85,1.27,13.52,3.21,24.07,21.66,39.42,12.09,2.83-2.22-.14-4.1-2.81-5.14,2.53-5.65-.05-6.65-5.07-7.81l-6.57-3.31c-2.08-3.78-5.46-6.61-8.45-2.8l-1.52-3.09c-13.69-.9-26.17-4.01-37.45-9.32-3.22-3.71-8.7-4.15-16.43-1.32-4.01.14-20.69-4.44-14.57-7.88,12.43,5.42,25.9,4.66,40.41-2.26l10.55-1.77c2.87-2.79-10.94-8.91-14.06-4.86-9.76,3.84-27.32,2.53-36.91-1.89-1.7-.78-2.1-2.15.66-1.95,10.28.77,22.95,6.3,32.4-.61-7.33-5.33-17.17-4.47-25.68-6.1-1.42-.27-5.05-.25-4.82-2.15,6.73-.45,12.8.14,19.33,1.64,8.81,2.02,16.78,10.14,23.91.9-18.3-1.98-34.14-13.95-52.9-11.4l-3.08-1.32h-7.63Z"/>
      <path class="cls-18" d="M1489.17.88c-.64,3.53-1,7.77,0,11.44,0,.42-.03.85,0,1.27l1.07,1.34c8.26-7.05,10.48-4.73,6.67,6.98-2.69.16-4.5,1.31-6.47,3.12-.72,1.22-1.69,2.24-2.54,3.81-1.55,3.67-2.44,7.6-2.66,11.77l1.38.93c7.82,1.13,3.33-3.46,8.89-6.35.66,9.32-6.75,9.78-12.16,13.94-1.57,1.21-1.64,3.72-1.82,3.85,3.08,6.23,5.91,12.68,8.49,19.35l2.96-.29c6.97-5.4,10.38-18.25,12.68-19.73,8.79-5.65-2.75,16.07-4.5,18.38-2.25,2.96-5.32,5.39-8.18,7.71,3.11,1.98,5.6,4.64,7.48,8,2.81-.35,8.23-2.78,10.77-4.37l1.9-5.13c3.89,1.67,5.39,1.01,7.78-2.42,3.74,2.71,6.73,3.17,8.97,1.38.48-14.02.43-19.02,3.24-32.98,2.5-12.42,3.54-15.34-4.51-25.47-3.73-1.16-4.78-2.53-6.36-6.35-2.81-2.98-6.65-6.19-7.63-10.17h-25.44Z"/>
      <path class="cls-18" d="M608.85.88c5.16,5.08,13.89,6.86,19.54,10.34,6.74,4.15,18.8,16.58,25.56,18.94,8.13,2.85,21.69-.31,31.23,1.21,2.65-1.57,4.24-3.76,4.76-6.55l4.63,6.22c4.54-.02,7.77,1.36,9.69,4.14.84.07,1.71-.07,2.54,0,5.44-1.24,7.96-5.09,7.57-11.57l1.33-2.41c-12.62-5.94-15.97-6.79-30.53-8.89-4.1-3.5.17-3.12,3.82-2.54,12.42,2.16,24.47,5.56,36.89,7.62l-8.38-11.31-6.88-5.2h-101.77Z"/>
      <path class="cls-18" d="M1875.9.88c-.17.74.25,2.14,0,2.54-.77,2.83-2.47,5.79-5.09,8.89-.41.43-.86.81-1.27,1.27-1.22,6.55-.47,7.74,6.51,9.1l-1.2,3.02c2.6,4.38,4.19,9.18,4.76,14.4-7.4,6.36.16,9.61,6.98,7.1,1.87,6.76,4.8,9.42,8.78,7.99,3.63,6.8,8.29,8.62,9.93-.12,4.28,6.91,12.6,4.17,13.86-3.38v-2.54c-.98-4.17-2.01-8.09-3.1-11.77-.61,3.66.43,5.04,3.1,4.15V.88s-43.25,0-43.25,0Z"/>
      <path class="cls-18" d="M1606.2.88c-1.16,9.59,5.22,28.93,11.43,36.23,5.31,6.24,22.33,11.08,29.28,17.14l2.26-1.42c-.81-4.67.41-8.29,2.83-12.56,0-.66,1.26-1.94,1.27-2.54-3.3-4.27-4.13-7.96-2.49-11.07l-2.2-5.03c2.81-1.14,2.02-3.02.87-5.5-3.18-4.91-7-8.82-7.63-15.25h-35.62Z"/>
      <path class="cls-18" d="M574.5,11.04v35.58c24.55,5.63,44.63-16.21,69.96-12.71.44-2.01-.61-2.63-1.89-3.81-4.13-3.8-24.33-16.95-29.35-17.7s-12.79-.09-18.37-.08c-4.16.75-6.21,3.62-7.3,7.57l-4.06-.13c6.28-5.43,4.2-6.26-3.91-7.44-1.63-.58-3.42-.79-5.09-1.27Z"/>
      <path class="cls-18" d="M990.49.88c-4.86,2.77-11.95,2.52-16.54,0h-22.9c10.44,17.63,32.11,25.13,49.61,34.31,2,1.26,3.57.02,4.72-3.73,2.63,1.09,4.96.06,7-3.08,1.96,1.25,10.36,5.4,11.6,5.25,2.39-.29,4.98-5.75,2.12-7.34-14.97-4.86-16.71-14.28-36.76-10.65-5.87,1.06-1.49-3.93,1.81-4.56,12.22-2.36,27.35,7.72,40.04,8.86,2-2.52.18-7.34-2.54-8.89-6.58-2.87-13.43-5.69-19.08-10.17h-19.08Z"/>
      <path class="cls-18" d="M1229.65.88c20.24,10.02,41.29,18.49,62.33,26.68.47-3.08,1.72-5.29,3.77-6.64-.96-2.84-3.47,4.78-3.77,6.64,2.53.99,5.83,4.87,9.52,4.95,2.78.06,7.27-2.73,10.56-3.33,6.16-1.12,11.78-1.87,18.09-1.62.69-2.37-1.38-4.61-6.21-6.73,3.7-3.02,2.75-4.62-1.42-5.98-.54-2.28-2.49-3.32-5.83-3.13-.02-3.62-1.89-7.23-5.62-10.85h-81.42Z"/>
      <path class="cls-18" d="M1475.17.88c-4.22,13.12-13.11,11.92-12.72,27.95,1.66,3.39,3.83,5.9,6.53,7.52,3.39,12.56,8.83,3.53,11.76-3.21l.8-1.77c1.08-.49,6.19-10.33,6.31-12.13.34-5.12-3.58-12.66-2.49-18.36h-10.18Z"/>
      <path class="cls-18" d="M1699.07.88c5.66,8.28,9.25,13.06,9.02,23.55-.05,2.4-1.37,4.71-1.39,5.68,0,2.09,1.51,2.72,4.52,1.88.84,7.37,6.4,8.66,8.68,1.18,3.24.27,5.63-1.54,7.18-5.45l2.52-1.42c-4.67-8.19-3.26-18.82-12.72-25.41h-17.81Z"/>
      <path class="cls-18" d="M1445.91.88c-2.08,5.55.39,10.88-.04,15.73-.23,2.68-2.12,5.48-2.51,8.41-4.92,3.83-2.63,11.6,3.86,8.27,4.54,3.44,11.36-.44,11.41-5.73-1.58-12.05,11.52-16.65,15.27-26.68h-27.99Z"/>
      <path class="cls-18" d="M840.37.88c4.03,6.91,10.26,16.08,15.88,21.63,2.5,2.47,4.4,2.69,5.75,3.79,1.48-3.45,4.01-5.38,7.58-5.8l1.33-3.1c3.4,4.99,18.31-4.06,13.99-8.89,2.12-1.16,2.12-2.85,0-5.08-.36-.07-1.21-1.26-2.54-1.27-3.46.14-5.58-.28-6.36-1.27h-35.62Z"/>
      <path class="cls-18" d="M1064.27.88c-2.9,1.42-2.21,3.27,2.05,5.57-.29,3.22,1.52,5.61,5.44,7.16l1.42,2.51c2.46.72,7.93,4.46,9.85,4.82,2.05.38,3.99-1.22,5.8-.81s3.86,3.84,8.19,4.6c4.73.83,10.4.44,6.75-5.49-3.1-5.03-13.95-12.92-17.87-18.36h-21.63Z"/>
      <path class="cls-18" d="M1727.06.88c.27,6.87,2.15,17.3,7.63,21.6,4.21,3.3,3.46.15,7.61,4.39,5.88,6,4.89-5.09,3.84-9.47h6.35c-1.51-2.52-4.1-12.43-2.54-13.99,1.02-1.02,10.37,2.33,6.37-2.54h-29.26Z"/>
      <path class="cls-18" d="M1648.19.88c.07,7.59,12.22,13.84,13.99,17.79l2.15,1.15c-.14,4.8,1.17,6.69,3.92,5.66,2.49,5.54,5.56,4.54,9.2-3-2.08-7.37-.05-14.58-2.54-21.6h-26.71Z"/>
      <path class="cls-18" d="M1355.59.88c5.35,5.19-.56,5.23-1.27,10.15,6.71,2.67,13.05-2.01,12.72,7.63,3.33.93,3.46-3.56,5.04-4.46,1.03-.59,3.18.99,3.72.61.5-.35.85-4.67,2.67-5.78,2.55-1.56,5.96,4.62,6.38-5.6.58-.53,9.95,5.89,11.44,6.94,2.2,1.54,1.8,3.32,3.82-.59-4.19-3.23-8.08-6.31-12.72-8.89h-31.8Z"/>
      <path class="cls-18" d="M1679.99.88c2.45,5.31.73,11.15,1.58,16.84.27,1.8,4.91,11.49,6.05,13.65,2.63,2.99,4.62-.09,6.19-2.91,1.62-5.26,3.28-7.25,7.8-9.8-.07-.41.09-.87,0-1.27-3.11-3.11-3.53-4.81-1.27-5.08-1.9-4.67-4.48-7.68-7.63-11.44h-12.72Z"/>
      <path class="cls-18" d="M722.07.88c5.35,17.13,15.59,13.72,29.26,15.25-.42-2.99-2.25-5.77-4-8.13-.24-.33-6.76-4.85-2.98-4.59,2.87.2,8.17,4.1,4.43-2.52h-26.71Z"/>
      <path class="cls-18" d="M1183.85.88c9.4,5.52,22.34,5.91,33.13,8.21,7.37,1.57,17.88,8.75,24.12,1.97-6.68-2.12-14.14-4.98-19.08-10.18h-38.16Z"/>
      <path class="cls-18" d="M891.26.88c6.77,5.97,15.26,9.54,22.9,13.98,8.76-.23,2.3-3.5,2.62-5.56.27-1.7,4.57-3,3.73-5.86l-7.63-2.55h-21.63Z"/>
      <path class="cls-18" d="M826.38.88c-.31,5.09-1.58,8.99-5.09,12.69,3.79,1.47,6.36,1.3,10.17.02,1.1,4.8-1.21,7.34-2.53,11.42,6.1.65,11.8-2.89,10.18,5.09l7.63-2.54c-7.32-7.69-14.02-17.36-19.08-26.68h-1.27Z"/>
      <path class="cls-18" d="M588.49.88h-13.99s0,6.35,0,6.35c6.3,3.74,6.65.8,10.91.09,8.66-1.45,18.38-.99,3.09-6.45Z"/>
      <path class="cls-18" d="M1518.43.88c1.71,4.1,4.82,6.08,7.63,8.89,2.29,2.03,5.25,1.61,8.9-1.27-.4-2.52-1.64-4.94-1.27-7.62h-15.27Z"/>
      <path class="cls-18" d="M1312.34.88c3.58,5.61,4.73,8.64,11.45,10.17l2.54-10.17h-13.99Z"/>
      <path class="cls-18" d="M926.88.88c1.5,5.41,11.4,2.95,12.59,3.95s.51,11.58,5.22,3.68c-1.46-2.11-3.13-5.12-3.82-7.62h-13.99Z"/>
      <polygon class="cls-18" points="1397.57 .88 1407.73 8.5 1409.02 .88 1397.57 .88"/>
      <polygon class="cls-18" points="1428.1 .88 1440.18 7.25 1442.1 .88 1428.1 .88"/>
      <path class="cls-18" d="M1111.34,107.61c-3.57.9-13.82,5.08-15.9,5.08h-26.71c-7.68,0-19.24,13.42-25.79,16.18-2.66,1.12-18.04,2.98-18.1,4.16,0,.09,1.49-.19,1.27,1.26-11.63-.6-1.95,6.76-3.8,13.99l5.07-.64c-4.83,2.48-3.4,5.71-4.48,8.19-.79,1.82-3.82,2.42-3.14,5.15,1.68.35,6.91-.55,7.56.08.27.27,1.64,7.28,1.35,7.54-.39.35-8.46,1.6-10.19,2.56-.96,2.16,3.12,4.28,2.55,5.05-.34.46-6.28,1.7-6.37,5.73l7.64.65c.18,4-5.9,3.9-5.08,8.87,1.75,1.2,8.56,1.02,8.92,1.29.25.19.24,6.15,0,6.34-.6.46-4.86-.31-6.36.01l1.26,5.06c-8.96-1.27-10.24,1.36-3.19,6.42,1.58,1.13,4.28,1.09,4.44,1.26.82.87-1.76,5.78-1.24,7.57l6.34-2.54.02,3.83c2.57.48,3.43-2.42,5.79-2.62,5.7-.49,11.29,5.78.57,7.05,5.84,2.09,3.96,6.61,4.91,7.71,1.47,1.7,5.02,1.78,6.03,3.05,1.67,2.09-4.15,4.47,4.3,7.04-4.82,2.48-3.56,5.9-4.58,8.29-.75,1.76-3.71,2.35-3.03,5.04,3.77,1.51,6.37,1.27,10.16.02-.78,10.82,1.79,5.16,7.08,3.86s5.63,2.62,6.28-5.13c2.28,4.75,5.99,3.44,8.17,4.51,1.63.79,4.1,4.25,5.85,4.09.78-.07,7.12-6.32,12.06-3.53l.63-3.8c2.95,6.69,11.21,1.45,14.64,10.16,7.68-.62,5.56-.03,8.26,6.35,3.26-2.62,4.82-5.91,4.47-10.16,3.73,2.7,6.93,3.4,11.43,3.82-1.25-8.27,2.64-3.93,7.64-5.09,1.72-1.46,1.61-3.14-.31-5.05,7.54-1.92,7.83-8.85.98-12.27l4.65-4.41c1.36-6.45-1.83-13.01-9.37-11.31l-2.86-12.83c-5.42-5.37-3.25-5.37,6.5-.01l1.75-.75c1.85-9.92,4.22-11.77,7.09-5.55l3.26.67c13.29-9.08,17.49-6.46,14.68,9.26,2.82,1.51,5.59,3.34,8.31,5.49l4.62-.3c1.05,2.73,2.87,4.48,5.91,4.56-1.45,2.59-1.25,4.53.59,5.81v6.34c3.3,2.1,10.03-2.67,10.73-2.52,1.29.28,3.41,6.02,4.51,5.06.17-.15-.4-2.43.75-2.55.96-.11,2.46,1.54,4.33.72,2.83-1.25,5.08-6.76,7.65-8.32-.59,8.01,2.17,11.5,10.11,11.41l1.36-8.87c3.33-1.1,2.11,1.82,3.14,2.25,3.72,1.59,4.59-1.77,5.49-2.14,1.37-.57,3.3-.35,5.01-1.08,3.01-1.28,4.45-5.75,6.07-.31,8.41-9.45,5.1-2.4,8.15,1.8.89,1.22,3.14.35,3.69.93.87.92-.34,4.95,2.16,6.15,6.09-5.1,1.55-11.01,12.08-8.88-3.18-3.15,2.41-11.57,1.28-12.69-.2-.2-6.78.48-3.82-2.53.38-.38,4.98-.44,8.91-5.1,7.57-.19,7.11-10.36-.71-10.59l1.08-1.09c4.11,1.82,8.28,2.21,8.01-3.43,10.68-.03,7-7.66,1-12.57,3.54-6.44,2.03-11.35-6.11-8.25l-2.09-1.86c-2.23.5-12.79-.82-13.3-1.32-.24-.23-2.86-5.49-2.92-5.82,3.63-8.72-3.15-10.85-9.18-4.99-1.9-3.31-5.25-3.19-7.23-.02-.89-3.04-1.65-4.99-5.38-4.94-.78-10.7-16.04-9.45-11.53,2.77.98,1.91,2.47,3.2,2.52,3.42.98,4.26-.66,19.87-1.8,24.61-.32,1.31-4.14,9.71-4.56,10.08-5.92,5.19,1.84-12.2,1.29-12.69l-8.91,1.89c1.41-6.76,8.79-1.92,10.89-8.18,2.52-7.51.19-9.93-3.24-15.31-3.47-.52-4.31-1.37-2.54-2.54-.04-.09,1.16-1.01.87-1.67-1.72-3.96-4.27-7.86-4.69-12.31-.71-3.82-4.06-4.92-10.03-3.31-.63-2.21-1.28-3.46-3.96-3.04-10.02,11.27-12.8,21.91-21.06,31.72-7.06,8.38-13.96,7.12-23.46,8.94-12.16-.05-24.64.16-36.7,4.13-4.29,4.37-8.52,8.89-12.71,13.54-1.45-3.03-8.01-4.22-11.65-3.68-.31-.68-.63-1.21-.95-1.21-13.72-.23-2.4,1.35,4.77-.06,6.79,6.24,12.86,3.7,18.23-7.62l4.49-1.61c14.27-.52,14.1-8.83.9-9.86-8.42-.66-17.72.07-26.02,1.16.81-3.87-5.02-8.48-8.89-9.76l1.11-1.54c.39-.91,2.37-.47,5.96,1.34,7.6-3.28,9.13-3.19,10.01,5.55l1.84,2,1.02,1.45c8.68-.7,15.29-1.21,23.15,2.55,4.55,7.24,16.25,3.8,22.9,1.09,12.32-2.32,21.08-6.4,25.22-18.83.54-1.61-1.08-2.63-1.05-2.78l-1.35-1.31c-19.69,2.13-34.9-4.19-52.29-11.76l1.48-2.18c4.5,1.67,6.2.82,5.09-2.54,1.38,2.32,6.49.93,7.24-2.01-2.55-5.84-5.26-11.53-8.14-17.07,9.77-8.42-4.27-11.39-11.36-11.34-1.47-2.66-4.59-3.96-9.36-3.89Z"/>
      <path class="cls-18" d="M827.65,136.84c-1.03,2.55,1.03,5.05,6.19,7.5-.51,6.54-1.84,9.27-8.89,9.32-3.4,1.53-2.91,4.9-.43,7.16-2.58,1.49-4.77,3.42-6.55,5.79-7.01-5.9-10.62,1.99-6.03,5.38l-.82,1.71c-.69,2.61,1.63,6.03,1.35,8.11-.12.85-2.59.71-2.7,1.56-.26,1.91,1.86,4.57,1.35,6.84-2.16.23-4.72-.47-6.77.03-.77.19-2.08,4.84-8.48,1.26-1.14,4.81,5.65,8.04,6.31,8.96,1.03,1.43-3.55,4.89-2.5,6.27.14.18,2.92.49,4.26,1.45,5.23,3.73,4.79,8.05,9.72,1.11-1.71,7.02,4.28,8.23,2.56,15.24,1.94,2.54,6.94-8.88,8.26-8.87,2.36,4.41,6.26,1.72,8.91,5.06.02-6.1,4.9-3.34,9.53-3.8-3.13,5.53,1.31,5.16,1.36,5.78.13,1.53-2.92,6.68-2.63,6.9,3.7.57,6.07-2.14,8.89-3.81-1.07,5.86,2.33,2.91,6.31,4.51,2.81,1.13,5.99,3.6,5.14,6.93-6.79-4.13-8.11,3.35-15.25,1.28-1.53,4.04,7.58,8.89,7.6,9.52.03.84-4.79,3.15-3.79,5.71,5.36-.89,7.45,3.15,10.82,6.35l3.16-5.08c-1.75,10.08,2.57,6.6,3.68,7.7.76.76-.21,5.81.16,7.54,3.36-.11,5.88-8.85,6.98-8.87,2.59-.03,3.6,7.22,2.78,9.32-.92,2.36-6.71,4.02-4.69,5.89,1.35,1.25,9.27,1.19,11.44.02l.02,6.34c2.43.37,3.79-1.76,5.98-2.28,5.26-1.25,7.75,2.35,6.75-5.34,2.3,4.24,7.37,3.42,7.61,3.81.41.66-3.76,12.58-2.53,15.24l5.72-5.07c3.61,5.15,7.25,3.96.64,9.53,8.44,2.06,2.45,3.37,2.55,9.52,2.99.53,10.16-3.97,11.9-3.64,3.18.6,2.17,6.13,5.89,4.91-2.33-5.12,2.41-8.02,2.52-8.49.51-2.13-1.02-7.1,1.93-7.63.84-.15,2.77,1.34,3.18.88.84-.94-2.05-6.61-1.26-7.61,2-2.52,2.69,2.48,3.35,2.6,2.54.47,5.01-.98,7.47-1.09,1.6-.08,4.79,1.64,5.68,1.02.32-.22,1.13-5.86,2.04-7.52s5.62-5.29,5.6-5.81c-.04-1.41-5.35-1.21-3.79-4.44,6.29,1.39,7.1-4.46,13.98-2.55-.1-6.56-15.66-6.86-2.55-10.16l1.3,5.09c7.98-4.04,4.36-2.14,10.15,2.54,3.2-3.16.83-12.21,1.28-12.69.22-.24,5.74-.65,6.37-1.3,2.69-2.76-4.89-3.53-5.09-3.81-.55-.76,1.84-4.28,1.29-5.04-.16-.22-3.79-.61-5.19-1.94-1.65-1.57.02-3.8-.51-4.52-1.03-1.4-4.6-1.05-5.73-3.1,2.09-1.17,9.54-12.4,8.87-13.33-4.2-1.65-7.23-1.39-11.43-.02l-.02-6.34c-2.77-.67-3.54,3.43-6.35,1.98-4.84-2.5,0-4.91,2.52-7.71-2.52-5.09-12.23-1.41-12.69-1.9-.27-.28-.31-6.1-1.3-7.62-2.55.18-2.75,5.43-3.98,6.12-1.74.97-1.01-3.69-5.87,3.66-3.74,5.66-1.94-1.07-2.25-2.3-.5-1.99-3.52-5.32-3.14-6.83.41-1.64,3.77-1.43,4.72-2.31.65-.61,3.51-7.91,2.91-8.52l-7.62,2.52c-.75-7.07,2.97-6.44,4.47-8.89,2.31-3.77-2.3-8.27,8.25-7.63,1.2-3.83-6.31-3.94-6.33-5.71l10.14-5.1-7.62-3.16c-5.86,4.96-11.19,11.95-15.27,19.06-2.32,8.24-2.8,16.05-1.45,23.42,7.37,7.07,5.52,10.43-4.2,11.03-.08,0,.19-.61.56-1.41l1.94-2.16c-.51-4.36-4.1-22.73-9.58-19.44-6.47,3.53-23.82,10.82-30.53,11.44-2.57-.6-1.72-1.87,2.54-3.81.35-.67.62-1.35.63-2.02,0-.88-13.69-7.15-15.06-6.57l-18.64-1.57,18.26,1.56.82-1.56,1.13-1.32c2.13,7.2,14.64,9.72,21.77,7.67,6.88-2.9,14.69-5.83,20.37-10.79,7.74-6.77,11.53-17.21,19.06-24.16l-16.52,1.91c-.34-9.05,8.62-5.48,14.33-6.63,3.34-.68,8.22-4.59,12.37-6.07,6.06-5.68-2.16-6.63-7.64-6.32l-1.26-1.3c-7.73-.15-21.04-.55-28.29-1.6-12.44-1.81-31.39-13.43-43.58-13.75-6.22-.16-30.38,8.21-38.8,10.27Z"/>
      <path class="cls-18" d="M826.38,37.73c-1.71.57-2.01,2.01-.9,4.32-4.78.22-9.09,1.12-7.8,6.84-6.34,1.53-9.94,7.65-1.68,9.05-6.17,6.67-4.86,8.45,3.29,11.24.07,1.62.75,3,2.01,4.13,17.84,11,29.9,36.32,53.39,42.61,3.23.86,7.1.02,8.95.6,5.54,1.35,5.19-4.91,3.65-8.78l1.44-2.66c-1.12-2.23-3.45-1.84-5.09-2.54-1.41-1.61-.69-2.12,1.27-2.54,1.66.83,3.76,2.45,5.59,2.31,1.66-.13,2.36-1.74,3.32-2.31-1.28-2.75-2.98-5.72-5.09-8.89-6.15-6.31-8.55-5.93-12.69-9.56-1.39-1.22-1.15-3.62-2.64-4.99-3.13-2.88-16.36-5.23-13.3-10.86,7.05,5.49,16.77,8.23,23.97,12.9,9.33,6.06,19.24,19.48,27.56,27.75,1.2.93,3.94.52,5.51.14.25-.06-4.81-.58-2.96,2.4,5.48,5.28,7.72,7.07,13.99,11.44l4.16,2.14c3.19,2.86,6.11,3.61,8.74,2.23,7.34,7.91,10.97-.41,9.1-8.23,6.27-.63,8.51-6.81,2.31-9.11l-.84-4.48c-5.21-2.09-10.23-8.3-6.18-13.24l.52-6.16c-4.16-.54-9.01.52-13.29-.07-6.7-.94-14.87-5.02-22.33-6.28-2.07,1.68-4.62,1.26-7.63-1.27-15.36-16.08-23.19-24.94-45.5-30.15-10.85-2.54-19.85-4.62-30.82-7.97Z"/>
      <path class="cls-18" d="M1369.59,134.3c-7.1,3.08-4.13-.35-6.98-5.07-3.37,3.2-7.77,2.62-12.09,2.54l-.63,5.07c-3.88-7.89-5.32-2.35-7.01-3.07-1.41-.6-2.99-4.21-5.08-4.55-1.31,2.37,1.7,11.05,1.27,11.43-.39.35-9.11,1.53-10.14,2.63-.19.2,2.12,3.05,0,4.4-4.26,2.72-11.06-1.88-7.69,6.96-3.05-1.15-6.06-6.37-6.98-1.27l-7-3.8c-.64,6.65,8.76,11.9-2.55,11.43,8.14,11.77,16.9,22.98,24.17,35.58l3.23,2.68c.51,5.81,2.1,9.73,7.99,5.24,1.25,1.83.9,4.27-1.04,7.33,5.04,9.96,9.05,23.47,14.96,32.67.8,1.25-.13,2.27,2.85,1.63l10.18-57.75-2.6-3.81-19.02-7.03c4.03.76,9.24.66,13.05,1.56,2.72.64,7.37,5.23,9.22,2.25.5-.8,2.02-8.61,1.79-9.38-1.13-3.86-9.66-1.14-8.79-5.87,2.67-1,9.76,2.29,11.33,1.16.84-.6,6.49-18.08,6.39-19.68-.14-2.24-2.63-3.64-3.73-5.63-1.34.12-1.76-.73-1.27-2.54-1.11-1.98-2.87-3.5-3.82-5.08Z"/>
      <path class="cls-18" d="M1410.29,289.32c-2.87.14-4.57-1.67-5.1-5.42l-2.8-.88c.75-5.64-1.86-9.2-7.06-5.27-3.27-2.73-9.48-2.15-9.22,2.67,4.96,21.72,35.5,65.37,57.83,71.21,6.93,1.81,15.01,1.03,21.4,2.77,7.23,1.96,6.42,6.2,17.97,4.67,11.98-1.58,4.09-6.98,2.16-14.62-1.57-6.23-.59-11.92-1.69-17.37-.63-3.11-3.78-6.64-4.8-9.81-8.47-10.08-26.41-14.32-38.45-9.49-3.85-3.82-25.54-23.3-29.18-20.15-.48.42-.79,1.02-1.06,1.68Z"/>
      <path class="cls-18" d="M1386.12,280.42l6.36-2.55c-.83,7.91,4.12,1.11,7.62,0-1.75,10.61,3.55,7.15,3.82,7.62.6,1.04-.4,5.77.02,7.62.82.94,5.53-2.94,6.35-3.81,2.82-.97,4.06-1.35,7.08.8l2.06-.96c.69-3.37,7.95-17.36,9.05-18.22,8.27.02,11-3.97,9.73-11.94,6.44-1.26,6.91-3.93,3.58-8.99l-.34-6.03c-1.76-2.14-2.24-4.91-1.46-8.3,4.33-2.59,5.3-7.3-.44-7.35-3.38,1.25-6.66,4.81-10.81,5.18s-10.62-2.42-14.64-3.91c-6.47.39-7.33-4.09-.46-3.19,16.08,4.12,1.93-6.54-6.13-9.1l1.5-1.68c5.41.96,2.67-4.49.23-7.56,2.25-2.82,3.02-5.39,2.31-7.69-1.42-.87-1.93-4.26-2.54-5.08-2.6-.58-4.3-1.85-5.09-3.81-.67-.71.11-4.25-2.83-5.51-10.95-4.7-12.88,3.73-15.37,12.11-7.97,26.9-5.67,55.78.39,82.34Z"/>
      <path class="cls-18" d="M1265.27,42.81c-6.8-1.71-7.22,1.68-1.27,10.17,20.52,10.51,39.94,27.56,59.79,36.85,2.64-.37,6.15.5,10.53,2.6,1.28-.34,3.87-8.85,4.13-10.59.5-3.23-2.06-6.57-4.48-8.53-4.21,2.21-6.84,3.46-11.46.64,9.45.35,10.75-4.3,16.5-10.17-3.59-4.09-7.46-9.83-13.38-10.74-5.98-.92-15.26,4.63-17.09-3.86,6.68,3.06,12.69-1.3,19.45.26,7.89,1.82,15.41,11.37,23.79,12.44-.02-.32.34-6.18.53-6.44.81-1.07,3.18-1.18,4.56-1.2,1.04-3.19-2.98-2.98-3.65-4.05-.53-.85,1.48-2.75-.07-4.2-1.45-1.36-5.05-1.68-5.2-1.91-.19-.29,1.77-2.8,1.2-3.62-.49-.7-4.42-.74-3.73-3.99-20.16-2.53-31.18-.74-50.95,1.82-10.41,1.35-15.34,6.42-29.2,4.53Z"/>
      <path class="cls-18" d="M1439.55,228.33c5.37,2.33-.6,3.71-1.87,6.43-.57,1.22.23,2.77-.19,3.76-.76,1.78-3.73,2.36-3.02,5.05,8.86-3.18.96,7.03,7.6,10.8-1.09,2.55-5.81,1.49-6.28,1.95-.91.88,1.45,8.72-1.3,10.78-1.75,1.31-6.4.87-8.13,1.82s1,5.82-7.16,3.88c-1.57,4.37,5.2.97,3.8,4.42-1,2.45-6.88,5.47-5.08,10.81-2.45.76-3.75-2.95-5.69-2.55-1.6.33-1.61,3.48-1.94,3.82,7.59-.86,28.11,21.04,30.08,21.41,1.63.31,3.97-2.07,6.24-2.29,13.82-1.32,20.42,3.78,32.37,8.83-4.13-12.83-5.51-16.37-11.45-27.95-7.65-1.09-15.32-2.69-23.02-4.82,5.03-2.88,10.56-4.71,16.16-6.13l1.77-3.03c-2.27-8.82.08-8.17-.28-14.29-.15-2.56-3.43-16.06-4.54-18.38-2.78-5.79-8.67-6.63-11.66-9.96-2.92-3.25-.24-6.68-6.42-4.39Z"/>
      <path class="cls-18" d="M1748.68,51.71l-2.26-1.79c-5.82-13.17-10.61-14.65-14.37-4.43-6.07-3.34-7.58.44-7.65,6.13-2.41,4.28-3.56,8.64-4.53,13.38-9.92,1.87-8.28,8.81,1.53,9.28-.48,8.12-.72,12.18-.72,12.18-1-3.97-3-5.7-6.02-5.2-4.66-9.31-9.31-1.44-11.22,5.01l-3.95.12c-.56,7.39-1.13,14.89-1.71,22.5,1.09,5.97,3.78,15.24,7.3,20.02l6.68,15.55c2.74-8.56,4.51-18.66,8.21-26.75,5.32-11.62,11.86-14.56,17.8-22.88,3.52-4.93,13-26.77,13.5-32.32.49-5.48-.91-6.62-2.6-10.8Z"/>
      <path class="cls-18" d="M872.18,22.48c-3.84.56-3.91,7.78-1.27,10.17,13.92,11.89,19.36,18.15,35.62,27.95.27-2.4-.39-5.36,0-7.62l2.73-2.85c11.03-3.73,14.69-10.01-.08-10.4,3.62-.45,6.56-1.96,8.8-4.53,10.6-1.11,10.43-5.25,2.54-11.44-8.71-4.2-13.82-7.41-21.63-12.71-5.92-4.06-10.55-2.68-14.8,2.58-3.02,3.88-6.52,6.02-10.5,6.42l-1.42,2.44Z"/>
      <path class="cls-18" d="M1423.02,77.12c-6.86,2.98-9.2,11.18-16.52,5.08l1.25,7.62-3.82-.62c.89,4.57,6.1,10.69-1.26,9.52l2.54,7.61c-2.4-.13-4.56-1.49-7.03-1.42-1.59.05-3.52,4.88-8.23,2.7-1.61,7.02,5.69,6.95,6.37,7.63,1.14,1.14-2.06,3.57-2.32,4.72-1.01,4.34,3.8,10.37-7.84,4.17-1.23,1.6,4.32,8.58-1.28,7.62.68.54.89,2.94,3.06,2.5,8.76-11.96,25.81-12.87,34.39-24.18,10.75-14.17,7.16-18.55.72-32.96Z"/>
      <path class="cls-18" d="M1167.32,32.65c-.91-.26-3.74-2.57-5.08-1.26-4.77,4.67,16.35,11.22,19.71,11.2,3.61-.01,7.19-2.84,11.15-2.12,3.06.55,6.87,5.29,11.12,6.77,9.99,3.49,22.42,2.19,33.07,7.01,3.75-.05,3.53-4.14,0-5.08-9.9-2.17-20.7-1.66-30.25-4.73-1.14-.37-11.89-4.29-9.18-6.7.78-.7,16.62,5.38,20.04,6.02,7.88,1.46,16.32,1.46,24.48,2.87,8.91.12,10.49-8.71,1.08-7.5-1.94.25,2.55,1.68.19-1.39-.5-.15-2.08-2.01-3.82-2.54-.01-.67-.08-1.31-.32-1.88-1.49-3.37-27.34-7.56-31.35-3.03-14.79,7.01-28.41,7.8-40.83,2.37Z"/>
      <path class="cls-18" d="M1214.38,18.67c-1.8.54-4.95,1.89-3.89,3.99,1.48,2.91,29.86,10.75,35.69,11.26.83.07,1.81-.15,2.54,0,2.12-3.54,3.19-5.23,8.2-4.4.7,8.46,5.54,6.92,9.64,1.57-1.93,4.4-1.52,7.04,1.24,7.91,4.22.47,8.5.76,12.72,0,1.99-2.44,1.25-3.94-1.24-5.38-6.48-1.46-8.53-3.9-6.12-7.33l-1.54-2.54c-20.62-8.24-35.16-7.66-57.25-5.08Z"/>
      <path class="cls-18" d="M831.47,101.26c-7.59,1.79.06,5.12.08,9.48,0,.69-3.66.66-2.62,3.23-3.1,1.87-5.66,4.02-7.67,6.46-8.28-.95-6.49,8.42.03,10.06,3.15-.15,34.5-8.7,35.62-10.18,1.29-1.71-1.34-2.77-2.13-3.57-6.57-6.65-15.93-9.89-23.31-15.48Z"/>
      <path class="cls-18" d="M954.87,39c-8.35,4.41,2.54,4.64,0,7.6-.27.31-4.47,1.17-5.05,3.2,1.65,3.71,12.1,2.73,12.64,3.24.43.41-.51,5.2,1.97,6.28,1.12-7.25,5.94-4.58,7.62-6.25,2.98-2.98-.11-8.46,6.99-2.63-1.07-3.17,1.6-5.14,4.52-4.59,1.41.27,2.09,2.23,3.09,2.59,2.75.99,3.59-1.76,7.03,4.51l1.91-7.6c-4.82-1.66-8.67-5.37-16.04-6.22-8.39-.96-15.89,1.01-24.67-.14Z"/>
      <path class="cls-18" d="M1411.57,200.37c-1.67.79-4.64,6.01-4.8,7.25-.42,3.22,4.61,4.8,2.25,8-1.28,2.6,4.55,5.32,6.36,3.81,4.75.49,9.84,3.46,15.27,8.89,3.05-.13,10.09-2.7,7-6.36-8.3-5.53-14.07-14.18-21.62-20.4-1.72-1.42-3.91-.86-4.47-1.2Z"/>
      <path class="cls-18" d="M1214.38,18.67c-3.97.46-6.85,3.77-10.18,5.08,2.69-.54,4.75.35,7.21,1.05,1.36.39,5.57,1.17,5.5,2.75-19.56,2.99-29.39,10.91-49.61,5.1-2.61,1.49,4.94,4.17,5.27,4.27,18.93,5.55,25.2-5.4,42.46-6.79,11.94-.96,14.69,1.96,24.79,5.06.98-1.88,4.4-1.42,6.36-1.27-9.22-5.01-20.5-5.97-29.73-10.33-2.4-1.13-7.1-2.79-2.07-4.92Z"/>
      <path class="cls-18" d="M1774.13,59.33l-6.37-1.28,1.27-8.89-6.97,3.83-1.28-3.82-4.46,3.81c2.26,6.12,3.22,7.02,2.24,14.32-.16,1.18-4.33,9.92-.33,9.8.76-.02,10.25-8.74,11.46-10.13,2.51-2.89,2.87-4.75,4.45-7.64Z"/>
      <path class="cls-18" d="M715.7,21.21c-4.41,8.24-3.99,12.89,1.27,13.98,2.7.32,5.89.94,8.9,1.27l1.9-8.86c8.33,6.86,4.42,1.26,7.78.13,1.67-.56,3.81-.06,5.58-.18l-6.36-5.07c-5.25.08-14.63.83-19.08-1.27Z"/>
      <path class="cls-18" d="M1456.09,73.31l-3.81-1.89-2.54,4.43-1.92-7.6c-3.07,4.56-7.07,4.05-12.08,3.8l-1.27,3.8c1.82,4.56,2.8,11.21,9.47,10.21,1.16-.17,9.43-6.48,10.36-7.58,1.97-2.34,1.38-4.52,1.79-5.17Z"/>
      <path class="cls-18" d="M1283.08,78.39c1.63,1.94.7,4.81,1.33,6.71.52,1.57,4.26.32-.06,7.26,8.49,1.83,9.13-9.06,14.63,1.26l5.73-6.33c-2.15-1.54-7.74-8.54-10.21-9.57-.85-.35-9.13.56-11.42.67Z"/>
      <path class="cls-18" d="M1528.6,103.8c-11.85-3.97-5.62,1.91-6.35,2.53h-3.83c-.34,3.4,3.35,5.24,3.84,8.25.61,3.71-3.59.9-4.97,2.05-.36.3-2.13,7.43-2.69,8.76l3.82,2.55c.78-.49,9.7-11.57,9.92-12.32.97-3.25.03-8.18.26-11.82Z"/>
      <path class="cls-18" d="M1425.56,182.58c-1.88,2.45-7.21-.41-7.62-.01-.39.37-.82,8.37-5.1,8.91,3.56,3.75,6.75,7.47,11.45,10.17,1.74,1,2.83,1.02,3.26.07l-.72-15.31c-.31-1.41-.69-2.5-1.27-3.81Z"/>
      <path class="cls-18" d="M579.59,12.32c1.97.7,4.78,1.81,6.35,3.18l-5.09.63c-1.06,8.66,4.12,5.38,9.29,6.61,2.8.67,4.4,3.51,6.61,3.56-.45-8.46,4.83-2.32,7-8.25-.85-4.04-11.45,2.9-13.98,1.88l5.08-7.62c-5.08,0-10.19,0-15.27,0Z"/>
      <path class="cls-18" d="M951.05,16.13v7.62s5.09-1.26,5.09-1.26l-5.09,7.61c.22.1.54,1.84,2.1,2.29,2.12.62,20.47.94,18.25-2.28-7.59-3.12-14.67-8.15-20.35-13.99Z"/>
      <path class="cls-18" d="M889.99,4.69l-5.09,3.81c-.3,5.78-9.72,7.38-13.99,8.89-2.27,2.54-1.97,3.92,1.27,5.08,14.4,1.63,10.19-16.12,26.71-11.44-3.09-2.09-5.64-4.81-8.9-6.35Z"/>
      <path class="cls-18" d="M919.25,188.94c-1.43.82-2.25,2.38-2.54,2.54,6.87,5.82,4.59,13.59,7.63,21.6,1.67-.63,7.63-1.83,7.61-3.18-8.01-5.57-7.79-14.51-7.62-23.51-1.44,1.35-3.58,1.69-5.08,2.54Z"/>
      <path class="cls-18" d="M1429.38,4.69l-3.81,6.35c5.68-1.08,8.05,1.95,11.44,5.73l-3.83.64,3.83,6.34c1.59-1.1,2.6-1.66,3.24-3.72,3.57-11.46-3.91-10.97-10.87-15.34Z"/>
      <path class="cls-18" d="M1467.54,74.58c-.42.8-6.93,7.22-5.08,8.89,7.27-.15,11.44,1.43,17.8-2.53l-2.56-7.62c-3.5,2.35-6.14,3.07-10.16,1.27Z"/>
      <path class="cls-18" d="M1266.54,61.87c-1.3,2.42-4.39,3.83-3.81,6.97.32,1.19,7.24,2.97,8.9,3.2,2.82.39,7.44.26,10.17-.63-4.24-4.39-10.18-6.51-15.26-9.54Z"/>
      <path class="cls-18" d="M1349.23,30.1c6.16-3.93-3.6-4.93-6.35-2.54l-.02-6.35c-2.31-.58-2.97,1.69-4.73,2.25-3.53,1.11-9.37-1.77-5.44,4.1,4.26.32,12,1.72,16.54,2.54Z"/>
      <path class="cls-18" d="M1186.4,148.28l-7.63-5.07c1.25,1.62,1.9,9.58,1.27,10.15-.7.63-6.1-1.76-6.36,3.81,2.54.1,5.09-.07,7.63,0,1.77-3.14,3.28-5.4,5.09-8.89Z"/>
      <path class="cls-18" d="M1389.95,182.58c1.87-.25,12.63-1.48,11.43-4.42-2.96-7.25-14.72-6.17-11.43,4.42Z"/>
      <path class="cls-18" d="M1430.65,228.33l-2.55-7.63c-6.26,4.55-8.87-8.39-12.71-1.27,3.44,1.87,8.14,6.17,11.45,7.62,1.23.54,2.39,1.33,3.82,1.27Z"/>
      <path class="cls-18" d="M1106.25,44.08c5.5.04,3.22,7.65,4.47,7.64,3.25-.03,4.56-5.04,4.44-7.64-2.84-.33-6.08.34-8.9,0Z"/>
      <path class="cls-18" d="M1426.83,186.39c-.52,2.68.73,14.29,0,15.26-.16.21-1.83-.12-2.54,0,1,.58,1.48,2.08,3.81,1.26.5-6.07-.04-10.88-1.27-16.51Z"/>
      <path class="cls-18" d="M1153.32,154.63l5.08-7.62c-2.54-1.33-11.5-.74-12.55-1.44-2.28-1.52.41-13.8-7.17.16-.4-5.37-6.09,2.16-5.72-3.81-1.6.75-2.94,2.54-5.09,2.54,3.72,2.42,20.73,8.92,25.44,10.17Z"/>
      <path class="cls-18" d="M1120.24,133.04c-.28.18,1.43,2.13.1,3.12-.51.38-8.18,4.21-8.65,4.3-4.48.84-8.78-3.19-13.06-1.72,9.15,8.14,16.95,1.89,26.71.63.49-2.11-2.91-7.73-5.09-6.33Z"/>
      <path class="cls-18" d="M1101.16,196.56c-1.27-.18-2.16-1.46-5.63-1.32-6.11.26-16.29,1.96-21.08,5.77-.19.99,1.13.74,1.89.63,5.51-.78,16.02-2.42,21-3.82.84-.24,2.13-1.87,3.82-1.27Z"/>
    </g>
  </g>
  <path class="cls-2" d="M1101.12,894.28l-2.63-1.83c-2.29-4.94-4.71-5.12-7.26-.54-1.96-2.86-4.49-5.59-8.26-3.05-3.69.77-7.29,1.87-10.82,3.28-.56-2.51-2.47-3.47-5.7-2.87-.08-.87-.24-1.62-.71-1.96-.51-.37-9.52,3.17-10.28,4.48-5-4.24-8.15-4.34-9.44-.29l-4.23.82c-1.94,7.09-5.46,4.08-8.98-.4-3.16.39-6.79-.2-10.89-1.79,4.6-6.63-9.12-10.08-6.36,1.27-1.35-2.43-3.01-2.64-3.15.42-3.65-1.19-7.26-1.75-10.84-1.69-1.45-1.27-2.31-.68-2.54,1.27-3.17-4.89-5.71-1.68-4.09,3.39-1.43-3.4-5.54-8.1-7.8-4.05-2-1.09-3.17-.22-3.38,1.99,1.6,4.52-.37,5.65-5.23,3.9-3.14.78-6.48,1.58-10.04,2.4-1.12-.06-2.1.72-2.92,2.34-3.71-1.88-6.38-1.5-6.97,3.15-5.56,1.48-9.07,3.55-11.74,8.49-4.57.12-7.17,2.06-7.79,5.83-2.54-2.46-6.43.66-7,3.98-1.3-.8-2.13-.9-2.91.77-1.86-3.63-4.34-1.98-6.02,1.23-2.94-.54-5.63.61-8.08,3.44-4.22,1.24-9.3,3.66-13.14,8.37"/>
  <path class="cls-2" d="M1446.94,859.15l-2.4-2.13c-1.7-5.17-4.08-5.63-7.15-1.39-1.61-3.07-3.81-6.08-7.84-4-3.75.34-7.46,1-11.13,1.99-.27-2.56-2.04-3.73-5.33-3.52.03-.87-.05-1.64-.47-2.03-.46-.43-9.82,2.04-10.74,3.25-4.47-4.8-7.59-5.26-9.35-1.39l-4.3.32c-2.76,6.81-5.9,3.41-8.88-1.45-3.18.02-6.72-1-10.61-3.06,5.34-6.05-7.88-11.08-6.47.52-1.06-2.57-2.68-2.97-3.18.05-3.49-1.6-7.01-2.59-10.57-2.95-1.29-1.43-2.22-.95-2.68.96-2.58-5.23-5.47-2.33-4.46,2.89-1.02-3.55-4.56-8.7-7.27-4.94-1.86-1.32-3.12-.59-3.59,1.58,1.06,4.67-1.02,5.57-5.65,3.26-3.21.41-6.62.81-10.25,1.21-1.11-.19-2.17.47-3.17,1.98-3.47-2.3-6.16-2.24-7.29,2.31-5.69.82-9.42,2.47-12.65,7.06-4.55-.42-7.36,1.21-8.42,4.88-2.23-2.74-6.46-.1-7.42,3.13-1.19-.95-2.01-1.14-2.98.42-1.42-3.83-4.08-2.47-6.12.52-2.85-.88-5.66-.05-8.43,2.47-4.33.74-9.66,2.55-14.03,6.77"/>
  <path class="cls-2" d="M1588.19,838.44l-2.4-2.13c-1.7-5.17-4.08-5.63-7.15-1.39-1.61-3.07-3.81-6.08-7.84-4-3.75.34-7.46,1-11.13,1.99-.27-2.56-2.04-3.73-5.33-3.52.03-.87-.05-1.64-.47-2.03-.46-.43-9.82,2.04-10.74,3.25-4.47-4.8-7.59-5.26-9.35-1.39l-4.3.32c-2.76,6.81-5.9,3.41-8.88-1.45-3.18.02-6.72-1-10.61-3.06,5.34-6.05-7.88-11.08-6.47.52-1.06-2.57-2.68-2.97-3.18.05-3.49-1.6-7.01-2.59-10.57-2.95-1.29-1.43-2.22-.95-2.68.96-2.58-5.23-5.47-2.33-4.46,2.89-1.02-3.55-4.56-8.7-7.27-4.94-1.86-1.32-3.12-.59-3.59,1.58,1.06,4.67-1.02,5.57-5.65,3.26-3.21.41-6.62.81-10.25,1.21-1.11-.19-2.17.47-3.17,1.98-3.47-2.3-6.16-2.24-7.29,2.31-5.69.82-9.42,2.47-12.65,7.06-4.55-.42-7.36,1.21-8.42,4.88-2.23-2.74-6.46-.1-7.42,3.13-1.19-.95-2.01-1.14-2.98.42-1.42-3.83-4.08-2.47-6.12.52-2.85-.88-5.66-.05-8.43,2.47-4.33.74-9.66,2.55-14.03,6.77"/>
  <path class="cls-2" d="M1648.1,831.8l-2.4-2.13c-1.7-5.17-4.08-5.63-7.15-1.39-1.61-3.07-3.81-6.08-7.84-4-3.75.34-7.46,1-11.13,1.99-.27-2.56-2.04-3.73-5.33-3.52.03-.87-.05-1.64-.47-2.03-.46-.43-9.82,2.04-10.74,3.25-4.47-4.8-7.59-5.26-9.35-1.39l-4.3.32c-2.76,6.81-5.9,3.41-8.88-1.45-3.18.02-6.72-1-10.61-3.06,5.34-6.05-7.88-11.08-6.47.52-1.06-2.57-2.68-2.97-3.18.05-3.49-1.6-7.01-2.59-10.57-2.95-1.29-1.43-2.22-.95-2.68.96-2.58-5.23-5.47-2.33-4.46,2.89-1.02-3.55-4.56-8.7-7.27-4.94-1.86-1.32-3.12-.59-3.59,1.58,1.06,4.67-1.02,5.57-5.65,3.26-3.21.41-6.62.81-10.25,1.21-1.11-.19-2.17.47-3.17,1.98-3.47-2.3-6.16-2.24-7.29,2.31-5.69.82-9.42,2.47-12.65,7.06-4.55-.42-7.36,1.21-8.42,4.88-2.23-2.74-6.46-.1-7.42,3.13-1.19-.95-2.01-1.14-2.98.42-1.42-3.83-4.08-2.47-6.12.52-2.85-.88-5.66-.05-8.43,2.47-4.33.74-9.66,2.55-14.03,6.77"/>
  <path class="cls-2" d="M1493.74,861.28l-2.4-2.13c-1.7-5.17-4.08-5.63-7.15-1.39-1.61-3.07-3.81-6.08-7.84-4-3.75.34-7.46,1-11.13,1.99-.27-2.56-2.04-3.73-5.33-3.52.03-.87-.05-1.64-.47-2.03-.46-.43-9.82,2.04-10.74,3.25-4.47-4.8-7.59-5.26-9.35-1.39l-4.3.32c-2.76,6.81-5.9,3.41-8.88-1.45-3.18.02-6.72-1-10.61-3.06,5.34-6.05-7.88-11.08-6.47.52-1.06-2.57-2.68-2.97-3.18.05-3.49-1.6-7.01-2.59-10.57-2.95-1.29-1.43-2.22-.95-2.68.96-2.58-5.23-5.47-2.33-4.46,2.89-1.02-3.55-4.56-8.7-7.27-4.94-1.86-1.32-3.12-.59-3.59,1.58,1.06,4.67-1.02,5.57-5.65,3.26-3.21.41-6.62.81-10.25,1.21-1.11-.19-2.17.47-3.17,1.98-3.47-2.3-6.16-2.24-7.29,2.31-5.69.82-9.42,2.47-12.65,7.06-4.55-.42-7.36,1.21-8.42,4.88-2.23-2.74-6.46-.1-7.42,3.13-1.19-.95-2.01-1.14-2.98.42-1.42-3.83-4.08-2.47-6.12.52-2.85-.88-5.66-.05-8.43,2.47-4.33.74-9.66,2.55-14.03,6.77"/>
  <path class="cls-2" d="M852.91,992.4l-2.4-2.13c-1.7-5.17-4.08-5.63-7.15-1.39-1.61-3.07-3.81-6.08-7.84-4-3.75.34-7.46,1-11.13,1.99-.27-2.56-2.04-3.73-5.33-3.52.03-.87-.05-1.64-.47-2.03-.46-.43-9.82,2.04-10.74,3.25-4.47-4.8-7.59-5.26-9.35-1.39l-4.3.32c-2.76,6.81-5.9,3.41-8.88-1.45-3.18.02-6.72-1-10.61-3.06,5.34-6.05-7.88-11.08-6.47.52-1.06-2.57-2.68-2.97-3.18.05-3.49-1.6-7.01-2.59-10.57-2.95-1.29-1.43-2.22-.95-2.68.96-2.58-5.23-5.47-2.33-4.46,2.89-1.02-3.55-4.56-8.7-7.27-4.94-1.86-1.32-3.12-.59-3.59,1.58,1.06,4.67-1.02,5.57-5.65,3.26-3.21.41-6.62.81-10.25,1.21-1.11-.19-2.17.47-3.17,1.98-3.47-2.3-6.16-2.24-7.29,2.31-5.69.82-9.42,2.47-12.65,7.06-4.55-.42-7.36,1.21-8.42,4.88-2.23-2.74-6.46-.1-7.42,3.13-1.19-.95-2.01-1.14-2.98.42-1.42-3.83-4.08-2.47-6.12.52-2.85-.88-5.66-.05-8.43,2.47-4.33.74-9.66,2.55-14.03,6.77"/>
  <path class="cls-2" d="M605.89,992.4l-2.4-2.13c-1.7-5.17-4.08-5.63-7.15-1.39-1.61-3.07-3.81-6.08-7.84-4-3.75.34-7.46,1-11.13,1.99-.27-2.56-2.04-3.73-5.33-3.52.03-.87-.05-1.64-.47-2.03-.46-.43-9.82,2.04-10.74,3.25-4.47-4.8-7.59-5.26-9.35-1.39l-4.3.32c-2.76,6.81-5.9,3.41-8.88-1.45-3.18.02-6.72-1-10.61-3.06,5.34-6.05-7.88-11.08-6.47.52-1.06-2.57-2.68-2.97-3.18.05-3.49-1.6-7.01-2.59-10.57-2.95-1.29-1.43-2.22-.95-2.68.96-2.58-5.23-5.47-2.33-4.46,2.89-1.02-3.55-4.56-8.7-7.27-4.94-1.86-1.32-3.12-.59-3.59,1.58,1.06,4.67-1.02,5.57-5.65,3.26-3.21.41-6.62.81-10.25,1.21-1.11-.19-2.17.47-3.17,1.98-3.47-2.3-6.16-2.24-7.29,2.31-5.69.82-9.42,2.47-12.65,7.06-4.55-.42-7.36,1.21-8.42,4.88-2.23-2.74-6.46-.1-7.42,3.13-1.19-.95-2.01-1.14-2.98.42-1.42-3.83-4.08-2.47-6.12.52-2.85-.88-5.66-.05-8.43,2.47-4.33.74-9.66,2.55-14.03,6.77"/>
  <path class="cls-2" d="M441.23,992.4l-2.4-2.13c-1.7-5.17-4.08-5.63-7.15-1.39-1.61-3.07-3.81-6.08-7.84-4-3.75.34-7.46,1-11.13,1.99-.27-2.56-2.04-3.73-5.33-3.52.03-.87-.05-1.64-.47-2.03-.46-.43-9.82,2.04-10.74,3.25-4.47-4.8-7.59-5.26-9.35-1.39l-4.3.32c-2.76,6.81-5.9,3.41-8.88-1.45-3.18.02-6.72-1-10.61-3.06,5.34-6.05-7.88-11.08-6.47.52-1.06-2.57-2.68-2.97-3.18.05-3.49-1.6-7.01-2.59-10.57-2.95-1.29-1.43-2.22-.95-2.68.96-2.58-5.23-5.47-2.33-4.46,2.89-1.02-3.55-4.56-8.7-7.27-4.94-1.86-1.32-3.12-.59-3.59,1.58,1.06,4.67-1.02,5.57-5.65,3.26-3.21.41-6.62.81-10.25,1.21-1.11-.19-2.17.47-3.17,1.98-3.47-2.3-6.16-2.24-7.29,2.31-5.69.82-9.42,2.47-12.65,7.06-4.55-.42-7.36,1.21-8.42,4.88-2.23-2.74-6.46-.1-7.42,3.13-1.19-.95-2.01-1.14-2.98.42-1.42-3.83-4.08-2.47-6.12.52-2.85-.88-5.66-.05-8.43,2.47-4.33.74-9.66,2.55-14.03,6.77"/>
  <path class="cls-2" d="M317.72,992.4l-2.4-2.13c-1.7-5.17-4.08-5.63-7.15-1.39-1.61-3.07-3.81-6.08-7.84-4-3.75.34-7.46,1-11.13,1.99-.27-2.56-2.04-3.73-5.33-3.52.03-.87-.05-1.64-.47-2.03-.46-.43-9.82,2.04-10.74,3.25-4.47-4.8-7.59-5.26-9.35-1.39l-4.3.32c-2.76,6.81-5.9,3.41-8.88-1.45-3.18.02-6.72-1-10.61-3.06,5.34-6.05-7.88-11.08-6.47.52-1.06-2.57-2.68-2.97-3.18.05-3.49-1.6-7.01-2.59-10.57-2.95-1.29-1.43-2.22-.95-2.68.96-2.58-5.23-5.47-2.33-4.46,2.89-1.02-3.55-4.56-8.7-7.27-4.94-1.86-1.32-3.12-.59-3.59,1.58,1.06,4.67-1.02,5.57-5.65,3.26-3.21.41-6.62.81-10.25,1.21-1.11-.19-2.17.47-3.17,1.98-3.47-2.3-6.16-2.24-7.29,2.31-5.69.82-9.42,2.47-12.65,7.06-4.55-.42-7.36,1.21-8.42,4.88-2.23-2.74-6.46-.1-7.42,3.13-1.19-.95-2.01-1.14-2.98.42-1.42-3.83-4.08-2.47-6.12.52-2.85-.88-5.66-.05-8.43,2.47-4.33.74-9.66,2.55-14.03,6.77"/>
  <rect class="cls-2" x="0" y="1081.76" width="1920" height="1080" transform="translate(1920 3243.52) rotate(-180)"/>
</svg>